<svg width="1440" height="727" viewBox="0 0 1440 727" fill="none" xmlns="http://www.w3.org/2000/svg">
<g opacity="0.3">
<path d="M499.794 726.689C492.746 726.689 485.886 726.095 479.294 724.912C465.468 722.428 452.694 717.328 441.328 709.752C429.111 701.613 418.396 690.522 409.477 676.789C391.554 649.185 382.586 616.128 373.914 584.158C372.21 577.88 370.448 571.389 368.66 565.091C356.456 522.165 340.986 484.563 321.37 450.138C282.237 381.467 227.204 322.86 162.216 280.656C87.0587 231.849 6.25232 207.536 -65.3196 212.198C-107.386 214.939 -162.967 241.005 -187.808 285.522C-202.55 311.942 -203.739 341.261 -191.243 370.305L-191.491 370.428C-198.043 355.196 -200.898 339.925 -199.973 325.041C-199.125 311.386 -195.112 298.039 -188.042 285.37C-176.799 265.219 -158.256 247.359 -134.419 233.719C-112.392 221.117 -87.8592 213.369 -65.336 211.902C-27.8801 209.465 11.956 214.875 53.0654 227.985C90.3304 239.871 127.102 257.506 162.358 280.401C227.383 322.63 282.449 381.268 321.604 449.98C341.232 484.428 356.71 522.051 368.921 565.001C370.713 571.299 372.474 577.793 374.175 584.07C382.84 616.017 391.802 649.051 409.701 676.613C427.011 703.273 450.442 719.423 479.34 724.614C519.359 731.803 567.955 716.766 609.331 684.387C668.959 637.729 710.341 569.814 750.362 504.138C757.377 492.626 764.63 480.723 771.811 469.228C790.455 439.38 815.704 400.703 845.712 366.246C876.384 331.026 907.553 305.15 941.001 287.135C961.474 276.108 983.171 268.679 1005.49 265.055C1026.1 261.706 1047.92 261.498 1070.34 264.433C1108.8 269.468 1150.23 283.692 1197.01 307.914C1289.11 355.614 1381.11 413.51 1470.45 479.998C1555.37 543.192 1638.66 614.702 1718 692.533L1717.81 692.749C1553.35 531.409 1378.09 402.021 1196.89 308.177C1094.51 255.159 1013.24 248.554 941.124 287.395C867.752 326.908 816.498 398.216 772.037 469.389C764.859 480.881 757.606 492.784 750.591 504.296C710.559 569.995 669.163 637.93 609.495 684.621C590.213 699.71 568.522 711.48 546.768 718.654C535.276 722.445 523.852 724.923 512.81 726.022C508.409 726.469 504.066 726.689 499.794 726.689Z" fill="#FFE492"/>
<path d="M506.684 710.319C488.711 710.319 472.064 706.652 457.185 699.412C440.595 691.34 426.279 678.832 414.631 662.237C413.601 660.767 412.578 659.248 411.591 657.716C393.858 630.232 384.493 597.605 375.438 566.05C373.606 559.673 371.714 553.077 369.795 546.676C358.363 508.566 344.597 474.977 327.706 443.995C325.626 440.181 323.472 436.358 321.299 432.635C281.591 364.554 226.111 306.69 160.856 265.297C85.1564 217.324 4.12096 194.016 -67.3228 199.671C-109.084 203.012 -164.409 229.505 -189.356 273.679C-204.294 300.132 -205.984 329.509 -194.25 358.638L-194.501 358.755C-200.652 343.488 -203.179 328.188 -202.009 313.286C-200.935 299.6 -196.758 286.223 -189.59 273.527C-178.232 253.411 -159.744 235.531 -136.13 221.821C-114.305 209.149 -89.8787 201.179 -67.3474 199.379C-29.9378 196.418 9.94193 201.311 51.1821 213.919C88.5372 225.34 125.483 242.542 160.992 265.046C226.285 306.462 281.796 364.361 321.528 432.48C323.701 436.206 325.858 440.032 327.938 443.849C344.84 474.851 358.614 508.458 370.051 546.589C371.973 552.989 373.865 559.585 375.697 565.965C384.749 597.5 394.106 630.104 411.815 657.55C412.799 659.075 413.821 660.595 414.849 662.062C438.918 696.364 471.99 710.319 506.769 710.319C506.959 710.319 507.148 710.319 507.338 710.319C507.12 710.316 506.902 710.319 506.684 710.319ZM514.103 710.115C546.436 708.335 579.799 695.017 608.421 675.205C670.162 632.293 714.535 566.015 757.449 501.92C759.216 499.278 760.982 496.642 762.749 494.006C766.629 488.219 771.228 481.369 775.923 474.463C796.985 443.492 822.475 407.457 851.83 375.022C883.065 340.51 914.269 314.899 947.223 296.724C967.473 285.568 988.873 277.71 1010.83 273.367C1031.17 269.342 1052.67 268.205 1074.72 269.985C1112.81 273.063 1153.77 284.73 1199.93 305.655C1244.94 326.025 1281.94 345.2 1316.36 366C1365.13 395.495 1411.59 429.478 1450.6 458.83C1541.3 527.265 1630.29 604.973 1715.11 689.797L1714.92 690.01C1630.12 605.198 1541.13 527.495 1450.45 459.069C1411.44 429.721 1364.99 395.743 1316.23 366.258C1281.81 345.463 1244.83 326.294 1199.83 305.93C1099.26 260.344 1019.03 257.5 947.349 296.987C872.949 338.014 819.966 410.198 776.144 474.638C771.447 481.544 766.85 488.392 762.97 494.181C761.203 496.814 759.437 499.453 757.67 502.095C714.742 566.211 670.353 632.512 608.569 675.456C593.249 686.059 576.947 694.482 560.114 700.488C544.445 706.073 529 709.302 514.103 710.115Z" fill="#FFE492"/>
<path d="M514.283 694.325C512.121 694.325 509.972 694.275 507.84 694.173C489.884 693.322 473.266 688.906 458.451 681.042C442.247 672.441 428.209 659.701 416.728 643.174C415.708 641.701 414.691 640.179 413.71 638.647C396.176 611.298 386.421 579.106 376.99 547.977C375.024 541.489 372.99 534.779 370.929 528.268C358.933 490.286 344.804 456.966 327.731 426.402C325.618 422.623 323.432 418.832 321.226 415.138C280.943 347.65 225.015 290.529 159.493 249.949C83.2535 202.808 1.98907 180.503 -69.3293 187.152C-109.484 190.954 -164.649 215.936 -190.877 261.797C-206.031 288.293 -208.236 317.75 -197.257 346.981L-197.51 347.089C-203.263 331.775 -205.458 316.44 -204.04 301.512C-202.737 287.782 -198.386 274.37 -191.109 261.645C-179.63 241.576 -161.202 223.69 -137.815 209.916C-116.194 197.182 -91.8797 188.996 -69.3539 186.863C-31.9879 183.382 7.93546 187.754 49.3038 199.859C86.7516 210.819 123.869 227.586 159.629 249.698C225.19 290.304 281.147 347.457 321.455 414.983C323.661 418.68 325.85 422.471 327.963 426.256C345.044 456.837 359.181 490.178 371.183 528.18C373.244 534.694 375.278 541.405 377.244 547.893C386.672 579.003 396.419 611.172 413.931 638.489C414.912 640.021 415.924 641.54 416.943 643.008C463.596 710.162 546.272 702.952 607.511 666.02C671.828 626.89 719.625 561.854 765.849 498.96L766.324 498.314C770.801 492.218 775.43 485.917 780.038 479.695C828.659 414.054 882.1 346.595 953.451 306.308C973.482 295.021 994.587 286.732 1016.18 281.673C1036.26 276.968 1057.43 274.902 1079.1 275.533C1116.88 276.632 1157.37 285.745 1202.86 303.391C1250.67 321.87 1286.65 338.856 1319.52 358.47C1366.35 386.471 1411.72 421.854 1451.74 453.073C1540.86 522.954 1628.49 601.677 1712.22 687.048L1712.03 687.258C1628.31 601.896 1540.68 523.182 1451.58 453.307C1411.56 422.094 1366.2 386.716 1319.39 358.724C1286.53 339.116 1250.56 322.136 1202.77 303.663C1104.16 265.412 1024.97 266.333 953.576 306.562C882.271 346.823 828.852 414.253 780.25 479.87C775.643 486.092 771.013 492.396 766.536 498.49L766.062 499.136C743.026 530.477 719.208 562.885 693.487 591.833C664.581 624.365 636.501 648.712 607.642 666.268C577.449 684.476 544.56 694.325 514.283 694.325Z" fill="#FFE492"/>
<path d="M1709.14 684.501C1626.51 598.59 1540.24 518.865 1452.72 447.543C1449.01 444.544 1445.3 441.531 1441.57 438.509C1403.66 407.758 1364.46 375.96 1322.55 351.189C1281.88 327.224 1240.67 312.57 1205.72 301.397C1109.24 270.365 1031.1 275.05 959.811 316.135C886.63 358.437 829.926 428.669 784.364 485.103C781.629 488.491 778.9 491.884 776.166 495.28C774.148 497.787 772.128 500.295 770.107 502.8C744.165 534.965 720.568 563.723 694.495 589.965C664.708 619.942 635.999 641.896 606.72 657.085C579.281 671.321 549.969 678.852 522.704 678.855C517.737 678.855 512.843 678.606 508.033 678.101C490.475 676.257 474.22 671.075 459.721 662.699C443.899 653.56 430.139 640.578 418.816 624.112C417.804 622.636 416.795 621.111 415.819 619.577C398.493 592.37 388.359 560.631 378.56 529.939C376.45 523.328 374.266 516.489 372.057 509.852C359.488 471.99 344.995 438.936 327.752 408.798C325.607 405.049 323.385 401.293 321.149 397.631C280.288 330.737 223.916 274.357 158.129 234.587C81.3499 188.279 -0.140854 166.982 -71.3338 174.616C-120.004 179.938 -169.772 210.876 -192.363 249.849C-207.754 276.4 -210.483 305.95 -200.262 335.304L-200.518 335.407C-205.87 320.037 -207.735 304.656 -206.061 289.689C-204.521 275.909 -199.989 262.454 -192.595 249.694C-180.997 229.683 -162.629 211.797 -139.476 197.973C-118.062 185.187 -93.8734 176.788 -71.3611 174.327C-34.0388 170.323 5.92548 174.178 47.422 185.78C84.9597 196.278 122.255 212.612 158.266 234.33C224.093 274.124 280.495 330.535 321.381 397.47C323.619 401.135 325.841 404.894 327.987 408.643C345.24 438.798 359.739 471.87 372.316 509.749C374.525 516.39 376.708 523.225 378.819 529.839C388.612 560.514 398.741 592.233 416.046 619.407C417.022 620.938 418.028 622.461 419.037 623.934C467.739 694.76 550.517 685.913 606.602 656.819C673.518 622.105 724.723 558.621 769.903 502.607C771.923 500.099 773.941 497.592 775.961 495.087C778.693 491.691 781.425 488.298 784.16 484.911C810.167 452.698 835.85 421.394 864.085 392.549C896.555 359.375 927.827 334.296 959.685 315.878C979.507 304.454 1000.31 295.736 1021.53 289.97C1041.35 284.578 1062.2 281.585 1083.49 281.07C1121.03 280.164 1161.04 286.723 1205.8 301.116C1240.76 312.295 1281.99 326.955 1322.68 350.934C1364.62 375.715 1403.82 407.521 1441.74 438.278C1445.46 441.3 1449.18 444.313 1452.89 447.312C1540.41 518.64 1626.69 598.373 1709.33 684.294L1709.14 684.501Z" fill="#FFE492"/>
<path d="M1706.25 681.748C1623.15 593.644 1538.24 512.905 1453.86 441.779C1448.81 437.523 1443.64 433.137 1438.65 428.896C1402.88 398.525 1365.89 367.119 1325.71 343.654C1285.59 320.305 1244.03 308.042 1208.67 299.128C1114.53 275.172 1037.44 283.618 966.044 325.709C897.948 366.002 844.6 426.593 793.008 485.188L787.342 491.62C782.868 496.702 778.241 501.954 773.68 507.107C722.035 565.365 670.336 619.967 605.799 647.896C590.138 654.673 574.057 659.369 557.999 661.862C540.754 664.537 524.003 664.575 508.208 661.974C491.054 659.147 475.167 653.212 460.989 644.33C445.56 634.665 432.075 621.446 420.913 605.045C419.907 603.56 418.906 602.032 417.938 600.5C400.824 573.455 390.325 542.183 380.172 511.941C377.906 505.192 375.561 498.213 373.195 491.436C360.042 453.691 345.189 420.903 327.783 391.198C325.607 387.486 323.353 383.76 321.081 380.127C279.645 313.826 222.828 258.189 156.772 219.228C79.4501 173.759 -2.26968 153.465 -73.34 162.089C-121.565 168.066 -171.108 199.22 -193.813 237.854C-209.461 264.472 -212.73 294.137 -203.269 323.64L-203.528 323.736C-208.479 308.299 -210.009 292.859 -208.075 277.849C-206.292 264.011 -201.573 250.503 -194.048 237.702C-182.324 217.758 -164.022 199.89 -141.114 186.025C-119.913 173.192 -95.855 164.591 -73.3727 161.803C-36.094 157.279 3.91116 160.613 45.5385 171.713C83.169 181.749 120.636 197.648 156.9 218.974C222.995 257.955 279.844 313.627 321.305 379.966C323.576 383.602 325.834 387.331 328.009 391.043C345.426 420.762 360.288 453.568 373.446 491.334C375.812 498.111 378.157 505.093 380.423 511.841C390.57 542.066 401.064 573.323 418.159 600.337C419.124 601.862 420.125 603.388 421.128 604.872C468.658 674.713 547.633 672.752 605.692 647.627C670.178 619.722 721.855 565.14 773.478 506.908C778.039 501.756 782.666 496.504 787.14 491.421L792.806 484.989C818.132 456.228 844.317 426.485 872.756 398.817C904.966 367.481 935.437 343.484 965.908 325.452C985.527 313.884 1006.04 304.737 1026.87 298.266C1046.45 292.181 1066.97 288.259 1087.86 286.608C1125.24 283.653 1164.77 287.657 1208.73 298.842C1244.11 307.762 1285.69 320.027 1325.83 343.396C1366.03 366.87 1403.03 398.285 1438.82 428.665C1443.81 432.906 1448.97 437.29 1454.02 441.548C1538.41 512.68 1623.33 593.425 1706.44 681.537L1706.25 681.748Z" fill="#FFE492"/>
<path d="M1703.36 678.997C1620.97 589.915 1537.41 508.165 1454.99 436.021C1448.8 430.6 1442.45 424.962 1436.31 419.512C1402.47 389.468 1367.47 358.401 1328.87 336.128C1288.93 313.18 1247.19 303.404 1211.61 296.869C1120.09 279.798 1044.04 292.009 972.274 335.292C909.648 373.224 858.229 426.982 808.502 478.968C803.27 484.439 797.858 490.094 792.585 495.574C786.393 502.01 781.663 506.899 777.249 511.423C753.608 535.64 725.46 563.524 695.921 586.717C664.619 611.293 634.838 628.303 604.874 638.719C589.118 644.195 573.106 647.65 557.279 648.983C540.285 650.415 523.831 649.363 508.377 645.853C491.634 642.05 476.118 635.361 462.254 625.97C447.22 615.788 434.016 602.333 423.007 585.984C422.014 584.502 421.019 582.971 420.054 581.433C403.166 554.569 392.315 523.78 381.818 494.005C379.384 487.099 376.867 479.959 374.329 473.024C360.585 435.384 345.369 402.865 327.807 373.601C325.599 369.922 323.312 366.23 321.008 362.627C278.996 296.919 221.732 242.024 155.409 203.873C77.5497 159.24 -4.39911 139.954 -75.344 149.563C-115.712 155.151 -168.436 180.893 -195.226 225.801C-211.154 252.502 -214.976 282.3 -206.276 311.973L-206.535 312.061C-211.086 296.545 -212.274 281.038 -210.071 265.969C-208.037 252.06 -203.122 238.494 -195.455 225.643C-183.606 205.781 -165.371 187.942 -142.717 174.048C-121.729 161.177 -97.8153 152.38 -75.3767 149.274C-38.1416 144.229 1.90717 147.044 43.66 157.641C81.3803 167.215 119.022 182.682 155.537 203.616C221.899 241.787 279.195 296.714 321.231 362.46C323.535 366.064 325.825 369.761 328.034 373.443C345.603 402.721 360.827 435.258 374.58 472.916C377.121 479.854 379.637 486.994 382.072 493.9C392.561 523.66 403.409 554.432 420.278 581.267C421.243 582.801 422.235 584.33 423.228 585.808C462.769 644.534 530.644 664.209 604.79 638.435C671.937 615.095 726.711 562.785 777.06 511.207C781.475 506.683 786.202 501.793 792.394 495.358C797.667 489.878 803.079 484.223 808.311 478.752C832.792 453.159 858.104 426.695 885.104 401.915C915.635 373.89 944.107 352.012 972.143 335.032C991.575 323.312 1011.79 313.735 1032.22 306.569C1051.58 299.78 1071.77 294.931 1092.25 292.152C1129.54 287.096 1168.6 288.543 1211.66 296.574C1247.25 303.115 1289.03 312.894 1328.99 335.862C1367.62 358.149 1402.63 389.225 1436.48 419.278C1442.62 424.728 1448.97 430.366 1455.17 435.787C1537.59 507.94 1621.16 589.695 1703.55 678.784L1703.36 678.997Z" fill="#FFE492"/>
<path d="M1700.47 676.245C1618.8 586.177 1536.59 503.413 1456.13 430.258C1449.28 424.036 1442.25 417.504 1435.45 411.188C1403.06 381.104 1369.57 349.996 1332.02 328.594C1292.06 305.921 1250.22 298.687 1214.56 294.602C1127.18 284.323 1049.97 300.765 978.503 344.867C921.599 380.142 872.821 427.333 825.648 472.971C816.119 482.189 806.268 491.723 796.69 500.809C790.831 506.371 785.64 511.254 780.814 515.737C758.373 536.564 728.521 563.267 696.621 585.09C664.569 607.015 634.254 621.555 603.944 629.536C570.886 638.243 537.893 638.307 508.535 629.726C492.211 624.954 477.063 617.513 463.51 607.608C448.877 596.915 435.954 583.225 425.094 566.926C424.11 565.441 423.123 563.907 422.164 562.37C405.516 535.71 394.327 505.427 383.508 476.142C380.891 469.058 378.186 461.734 375.457 454.618C361.11 417.077 345.531 384.821 327.829 356.01C325.587 352.363 323.267 348.704 320.931 345.133C278.344 280.018 220.636 225.863 154.045 188.527C75.6487 144.732 -6.52916 126.452 -77.3513 137.046C-125.348 144.382 -173.27 175.186 -196.598 213.693C-212.831 240.49 -217.218 270.444 -209.284 300.315L-209.546 300.394C-213.693 284.785 -214.538 269.196 -212.06 254.063C-209.769 240.075 -204.644 226.439 -196.827 213.533C-184.852 193.764 -166.689 175.966 -144.299 162.06C-123.532 149.163 -99.7682 140.173 -77.3895 136.754C-40.198 131.189 -0.105652 133.486 41.7753 143.578C79.5884 152.691 117.404 167.724 154.17 188.264C220.799 225.623 278.54 279.808 321.154 344.963C323.491 348.535 325.811 352.197 328.055 355.847C345.766 384.675 361.353 416.946 375.708 454.504C378.437 461.62 381.141 468.947 383.759 476.031C394.572 505.301 405.756 535.57 422.387 562.203C423.347 563.741 424.331 565.269 425.315 566.754C464.178 625.1 530.93 648.463 603.878 629.253C670.382 611.738 728.134 564.237 780.634 515.518C785.457 511.035 790.651 506.154 796.507 500.593C806.083 491.506 815.936 481.976 825.462 472.758C872.646 427.111 921.433 379.908 978.364 344.618C997.624 332.732 1017.54 322.728 1037.56 314.878C1056.71 307.373 1076.58 301.595 1096.63 297.705C1133.91 290.472 1172.49 289.364 1214.58 294.315C1250.27 298.404 1292.15 305.64 1332.15 328.34C1369.73 349.756 1403.23 380.876 1435.63 410.972C1442.43 417.288 1449.46 423.817 1456.3 430.039C1536.77 503.2 1618.99 585.969 1700.66 676.043L1700.47 676.245Z" fill="#FFE492"/>
<path d="M1697.58 673.49C1616.63 582.429 1535.78 498.656 1457.26 424.496C1450.05 417.681 1442.63 410.465 1435.45 403.486C1404.24 373.147 1371.98 341.773 1335.18 321.061C1295.05 298.58 1253.18 293.925 1217.5 292.335C1133.43 288.313 1057.29 308.628 984.733 354.442C933.85 386.725 888.49 427.582 844.621 467.092C829.539 480.679 815.29 493.512 800.799 506.042C794.905 511.141 789.536 515.724 784.383 520.046C751.134 547.913 723.472 568.061 697.325 583.452C664.523 602.761 633.676 614.831 603.02 620.349C591.127 622.488 579.278 623.555 567.644 623.555C547.021 623.555 527.067 620.211 508.696 613.589C475.45 601.604 448.027 579.488 427.189 547.858C426.207 546.358 425.228 544.824 424.28 543.293C407.885 516.864 396.383 487.118 385.259 458.348C382.44 451.059 379.528 443.525 376.591 436.198C361.631 398.745 345.687 366.758 327.856 338.406C325.582 334.791 323.229 331.164 320.86 327.625C277.698 263.103 219.542 209.69 152.685 173.164C73.7512 130.211 -8.65298 112.933 -79.3525 124.512C-127.548 132.57 -174.088 162.789 -197.915 201.501C-214.478 228.41 -219.446 258.541 -212.286 288.641L-212.55 288.714C-216.288 272.996 -216.784 257.314 -214.023 242.102C-211.465 228.021 -206.124 214.308 -198.141 201.341C-186.041 181.681 -167.957 163.941 -145.84 150.035C-125.296 137.117 -101.698 127.952 -79.3934 124.223C-42.2455 118.138 -2.10951 119.915 39.8969 129.504C77.8026 138.158 115.79 152.759 152.81 172.901C219.706 209.451 277.894 262.893 321.083 327.452C323.453 330.994 325.806 334.621 328.082 338.24C345.924 366.606 361.877 398.611 376.842 436.078C379.779 443.405 382.693 450.942 385.509 458.231C396.628 486.986 408.125 516.721 424.506 543.126C425.455 544.654 426.431 546.189 427.412 547.685C466.324 606.756 530.314 633.135 602.974 620.057C672.141 607.607 733.404 562.397 784.214 519.813C789.364 515.49 794.733 510.911 800.627 505.811C815.116 493.282 829.364 480.452 844.447 466.865C888.321 427.346 933.692 386.482 984.594 354.188C1003.71 342.118 1023.33 331.684 1042.91 323.174C1061.88 314.932 1081.42 308.225 1101.01 303.242C1138.37 293.741 1176.48 290.076 1217.51 292.04C1253.22 293.629 1295.13 298.291 1335.31 320.798C1372.13 341.524 1404.41 372.913 1435.63 403.264C1442.81 410.243 1450.23 417.459 1457.44 424.271C1535.96 498.437 1616.82 582.218 1697.77 673.285L1697.58 673.49Z" fill="#FFE492"/>
<path d="M1694.69 670.738C1613.34 577.38 1536.05 494.949 1458.4 418.734C1450.99 411.463 1443.7 404.036 1435.97 396.175C1405.78 365.441 1374.57 333.664 1338.34 313.53C1297.71 291.059 1253.99 289.188 1220.45 290.071C1140.21 291.906 1065.14 316.096 990.963 364.024C946.459 392.919 905.369 427.619 865.631 461.178C844.747 478.816 825.021 495.472 804.905 511.28C798.934 515.977 793.386 520.255 787.949 524.361C754.248 549.776 725.674 568.03 698.023 581.813C664.46 598.542 633.082 608.143 602.093 611.164C586.17 612.716 570.357 612.424 555.092 610.296C538.929 608.043 523.372 603.721 508.854 597.452C476.674 583.555 449.903 560.458 429.283 528.798C428.309 527.296 427.339 525.758 426.395 524.227C410.276 498.07 398.485 468.891 387.08 440.674C384.037 433.145 380.891 425.359 377.725 417.79C362.138 380.419 345.834 348.698 327.881 320.813C325.571 317.23 323.186 313.636 320.789 310.129C277.051 246.2 218.452 193.53 151.327 157.813C89.3711 124.984 25.4795 107.855 -33.1091 107.855C-49.6723 107.855 -65.7992 109.223 -81.3535 111.99C-128.968 120.629 -175.217 150.957 -199.182 189.254C-216.097 216.288 -221.667 246.624 -215.29 276.981L-215.557 277.045C-218.886 261.205 -219.025 245.414 -215.972 230.115C-213.142 215.931 -207.569 202.128 -199.411 189.091C-187.186 169.553 -169.186 151.886 -147.353 137.995C-126.743 124.882 -103.937 115.79 -81.4026 111.704C-44.2984 105.099 -4.11877 106.359 38.0157 115.442C76.0115 123.631 114.176 137.797 151.447 157.547C218.61 193.284 277.245 245.984 321.01 309.95C323.409 313.457 325.798 317.055 328.107 320.641C346.069 348.54 362.381 380.276 377.976 417.664C381.142 425.234 384.291 433.02 387.333 440.551C398.733 468.757 410.519 497.924 426.624 524.06C427.568 525.589 428.538 527.126 429.509 528.625C468.069 587.828 530.963 617.802 602.071 610.869C674.025 603.852 739.121 560.82 787.797 524.116C793.233 520.01 798.779 515.731 804.75 511.037C824.863 495.235 844.586 478.576 865.468 460.942C905.211 427.379 946.307 392.671 990.827 363.766C1029.02 339.091 1066.49 321.109 1105.4 308.787C1142.92 296.904 1180.55 290.685 1220.45 289.773C1243.21 289.174 1261.78 290.214 1278.89 293.043C1300.98 296.696 1320.47 303.31 1338.47 313.264C1374.73 333.416 1405.96 365.21 1436.17 395.958C1443.89 403.82 1451.18 411.243 1458.59 418.515C1536.24 494.732 1613.54 577.169 1694.89 670.534L1694.69 670.738Z" fill="#FFE492"/>
<path d="M1691.79 667.983C1611.19 573.602 1535.22 490.189 1459.54 412.969C1452.05 405.329 1444.67 397.459 1436.85 389.127C1407.56 357.908 1377.28 325.622 1341.49 305.994C1300.53 283.628 1256.86 284.522 1223.4 287.798C1147.67 294.956 1073.68 323.021 997.193 373.593C959.508 398.631 923.628 427.284 888.929 454.995C861.498 476.9 835.591 497.592 809.014 516.504C803.008 520.782 797.119 524.874 791.516 528.661C757.749 551.469 727.395 568.312 698.721 580.154C664.387 594.334 632.477 601.471 601.166 601.968C585.236 602.219 569.485 600.676 554.361 597.377C538.507 593.916 523.25 588.507 509.012 581.294C477.936 565.55 451.814 541.471 431.374 509.723C430.414 508.224 429.449 506.684 428.508 505.144C412.692 479.305 400.644 450.743 388.991 423.122C385.695 415.307 382.284 407.223 378.857 399.364C362.632 362.064 345.965 330.611 327.905 303.203C325.563 299.652 323.145 296.09 320.716 292.615C276.403 229.28 217.356 177.352 149.964 142.445C69.9589 101.178 -12.906 85.9104 -83.3601 99.4536C-130.359 108.645 -176.299 139.051 -200.398 176.913C-217.695 204.09 -223.884 234.654 -218.3 265.306L-218.567 265.362C-221.479 249.384 -221.256 233.471 -217.899 218.066C-214.783 203.766 -208.973 189.863 -200.625 176.747C-188.279 157.35 -170.369 139.77 -148.83 125.909C-128.458 112.798 -105.837 103.551 -83.4091 99.1643C-46.3458 92.042 -6.12529 92.7785 36.1346 101.359C74.2231 109.092 112.56 122.825 150.081 142.179C217.514 177.103 276.594 229.063 320.931 292.436C323.363 295.911 325.784 299.477 328.126 303.031C346.197 330.453 362.869 361.92 379.102 399.236C382.532 407.094 385.94 415.178 389.239 422.996C400.887 450.606 412.93 479.156 428.735 504.977C429.675 506.514 430.641 508.054 431.597 509.551C470.564 570.071 530.783 602.792 601.161 601.67C658.266 600.764 718.706 577.483 791.368 528.407C796.969 524.62 802.855 520.531 808.861 516.252C835.431 497.343 861.337 476.657 888.763 454.753C923.468 427.038 959.353 398.379 997.049 373.336C1035.61 347.837 1072.48 328.536 1109.77 314.323C1147.55 299.927 1184.71 291.15 1223.37 287.497C1256.87 284.215 1300.59 283.324 1341.62 305.725C1377.44 325.377 1407.74 357.677 1437.04 388.91C1444.86 397.242 1452.24 405.11 1459.72 412.747C1535.42 489.97 1611.39 573.388 1691.99 667.776L1691.79 667.983Z" fill="#FFE492"/>
<path d="M1688.9 665.228C1609.06 569.821 1534.4 485.42 1460.67 407.206C1453.19 399.266 1445.8 391.015 1437.98 382.28C1409.52 350.503 1380.09 317.644 1344.66 298.46C1303.3 276.176 1259.71 279.844 1226.35 285.528C1155.1 297.438 1084.26 328.464 1003.43 383.168C973.107 403.778 943.479 426.387 914.827 448.251C880.026 474.805 847.156 499.889 813.122 521.736C806.99 525.675 800.921 529.457 795.084 532.97C760.711 553.644 729.42 568.538 699.421 578.498C682.618 584.077 666.03 588.119 650.119 590.512C633.146 593.064 616.365 593.826 600.241 592.78C567.526 590.656 536.886 581.356 509.175 565.142C479.247 547.63 453.776 522.571 433.472 490.657C432.518 489.146 431.561 487.603 430.626 486.072C415.148 460.613 402.884 432.729 391.027 405.765C387.436 397.603 383.726 389.162 379.993 380.95C363.114 343.71 346.084 312.524 327.932 285.604C325.557 282.082 323.103 278.552 320.644 275.112C275.756 212.368 216.265 161.182 148.605 127.09C68.0658 86.668 -15.0254 72.4059 -85.3623 86.9281C-160.675 102.719 -234.063 170.946 -221.303 253.64L-221.573 253.687C-224.765 233.001 -222.895 212.622 -216.016 193.111C-209.735 175.292 -199.426 158.522 -185.377 143.272C-172.314 129.092 -156.643 116.849 -138.801 106.883C-121.831 97.4055 -103.37 90.4031 -85.4168 86.6388C-48.3971 78.9963 -8.13295 79.2155 34.2551 87.2935C72.4363 94.5677 110.947 107.868 148.72 126.827C216.417 160.942 275.944 212.157 320.859 274.937C323.321 278.379 325.775 281.91 328.152 285.435C346.313 312.366 363.351 343.57 380.238 380.824C383.971 389.037 387.682 397.477 391.272 405.643C403.127 432.597 415.385 460.47 430.855 485.914C431.787 487.445 432.742 488.988 433.696 490.496C472.72 551.829 531.872 588.049 600.257 592.491C658.151 596.246 721.835 576.697 794.95 532.719C800.785 529.206 806.851 525.427 812.983 521.487C847.009 499.647 879.873 474.565 914.668 448.014C943.323 426.147 972.954 403.535 1003.28 382.923C1084.15 328.195 1155.02 297.157 1226.3 285.239C1248.72 281.419 1267.28 280.197 1284.72 281.398C1307 282.933 1326.65 288.427 1344.78 298.197C1380.25 317.402 1409.7 350.28 1438.17 382.075C1445.99 390.808 1453.38 399.058 1460.86 406.996C1534.6 485.215 1609.25 569.619 1689.1 665.032L1688.9 665.228Z" fill="#FFE492"/>
<path d="M1686.01 662.479C1606.93 566.032 1533.59 480.649 1461.81 401.448C1454.39 393.253 1447.05 384.669 1439.28 375.577C1411.59 343.192 1382.96 309.702 1347.81 290.931C1305.56 268.459 1259.94 275.792 1229.3 283.262C1146.13 303.287 1071.6 349.844 1009.66 392.75C987.397 408.234 965.193 424.635 943.717 440.496C900.636 472.314 859.947 502.367 817.234 526.975C810.953 530.596 804.704 534.065 798.656 537.288C763.613 555.931 731.384 568.872 700.128 576.845C664.695 585.885 630.781 588.158 599.32 583.599C567.001 578.914 536.727 567.271 509.342 548.99C480.619 529.818 455.8 503.781 435.57 471.601C434.627 470.09 433.675 468.544 432.745 467.006C417.652 442.016 405.236 414.897 393.226 388.67C389.291 380.075 385.221 371.19 381.131 362.542C363.341 324.835 346.445 294.8 327.963 268.012C325.555 264.522 323.071 261.027 320.577 257.616C275.108 195.468 215.17 145.025 147.243 111.74C66.1693 72.1652 -17.1509 58.9055 -87.3678 74.4068C-162.95 91.3138 -234.839 158.615 -224.309 241.981L-224.579 242.019C-227.191 221.336 -224.931 200.977 -217.864 181.51C-211.386 163.674 -201.017 146.886 -187.041 131.619C-174.009 117.38 -158.419 105.047 -140.703 94.9553C-123.834 85.3459 -105.409 78.1418 -87.4223 74.1174C-50.4435 65.9547 -10.1385 65.6566 32.375 73.229C70.6489 80.0444 109.334 92.9124 147.357 111.474C215.325 144.776 275.296 195.249 320.787 257.435C323.281 260.849 325.768 264.347 328.178 267.837C346.672 294.637 363.573 324.689 381.371 362.411C385.461 371.059 389.531 379.946 393.466 388.541C405.473 414.76 417.886 441.869 432.969 466.849C433.899 468.386 434.848 469.929 435.791 471.44C475.117 533.995 533.204 573.724 599.353 583.31C658.681 591.908 723.832 576.766 798.534 537.025C804.578 533.805 810.827 530.338 817.104 526.717C859.805 502.115 900.489 472.068 943.562 440.253C965.038 424.393 987.245 407.988 1009.51 392.502C1051.16 363.653 1085.81 342.339 1118.54 325.426C1157.08 305.517 1193.28 291.632 1229.23 282.976C1251.15 277.633 1270.25 275.213 1287.63 275.581C1310.01 276.055 1329.74 280.988 1347.93 290.668C1383.12 309.463 1411.77 342.973 1439.47 375.378C1447.25 384.467 1454.58 393.051 1462.01 401.24C1533.79 480.444 1607.12 565.833 1686.22 662.283L1686.01 662.479Z" fill="#FFE492"/>
<path d="M1683.12 659.721C1604.8 562.23 1532.78 475.863 1462.95 395.679C1455.63 387.271 1448.38 378.389 1440.71 368.984C1413.75 335.948 1385.88 301.786 1350.97 283.394C1308.26 260.975 1262.76 271.283 1232.25 280.989C1156.89 304.752 1089.68 349.999 1015.89 402.322C1002.58 411.794 989.123 421.57 976.104 431.027C926.036 467.396 874.266 505.001 821.343 532.204C814.914 535.512 808.479 538.671 802.222 541.594C766.942 558.054 732.829 569.353 700.828 575.177C664.578 581.776 630.115 581.516 598.39 574.409C566.524 567.269 536.617 553.278 509.5 532.826C482.058 512.129 457.886 485.115 437.656 452.538C436.72 451.024 435.777 449.475 434.853 447.937C420.215 423.531 407.719 397.295 395.636 371.924C391.281 362.783 386.78 353.331 382.257 344.134C363.772 306.465 346.524 276.687 327.979 250.419C325.544 246.97 323.025 243.504 320.495 240.12C274.459 178.556 214.079 128.855 145.879 96.3821C64.2742 57.6552 -19.2723 45.4009 -89.3747 61.8783C-162.558 79.2676 -235.774 144.207 -227.319 230.312L-227.589 230.341C-229.62 209.658 -226.97 189.323 -219.715 169.899C-213.044 152.042 -202.612 135.241 -188.713 119.956C-163.068 91.7586 -126.882 70.4853 -89.4347 61.589C-52.4995 52.909 -12.1508 52.0906 30.4908 59.1574C68.8573 65.5169 107.715 77.9495 145.988 96.1132C214.226 128.603 274.641 178.337 320.707 239.93C323.24 243.317 325.759 246.783 328.197 250.235C346.75 276.517 364.006 306.307 382.497 343.991C387.02 353.191 391.524 362.642 395.878 371.784C407.959 397.149 420.452 423.379 435.082 447.774C436.003 449.311 436.947 450.857 437.882 452.371C478.356 517.55 533.877 559.65 598.442 574.119C658.228 587.516 726.749 576.484 802.108 541.325C808.362 538.403 814.791 535.246 821.218 531.941C874.121 504.746 925.886 467.147 975.943 430.785C988.962 421.327 1002.42 411.552 1015.73 402.079C1048.03 379.175 1085.62 352.904 1122.92 330.971C1161.94 308.028 1197.67 291.589 1232.16 280.711C1253.87 273.805 1272.97 270.222 1290.54 269.76C1312.7 269.176 1333.07 273.677 1351.09 283.134C1366.72 291.373 1382.46 303.668 1399.2 320.724C1413.98 335.784 1427.67 352.565 1440.91 368.791C1448.58 378.193 1455.82 387.075 1463.14 395.48C1532.98 475.667 1605 562.037 1683.33 659.531L1683.12 659.721Z" fill="#FFE492"/>
<path d="M1680.23 656.969C1602.67 558.426 1531.97 471.073 1464.08 389.92C1456.89 381.327 1449.77 372.177 1442.23 362.491C1415.98 328.768 1388.84 293.896 1354.13 275.867C1321.7 259.071 1282.79 260.006 1235.19 278.725C1168.63 304.75 1109.14 348.282 1046.14 394.374C1038.3 400.114 1030.19 406.046 1022.12 411.906C1018.96 414.206 1015.8 416.512 1012.64 418.815C952.618 462.563 890.556 507.801 825.451 537.442C818.87 540.441 812.255 543.29 805.791 545.909C769.736 560.501 734.661 569.789 701.54 573.512C664.452 577.68 629.436 574.892 597.471 565.224C566.101 555.734 536.562 539.397 509.677 516.665C483.617 494.632 460.094 466.646 439.757 433.478C438.83 431.961 437.895 430.409 436.976 428.869C422.894 405.228 410.44 380.05 398.392 355.702C393.514 345.842 388.467 335.645 383.399 325.72C364.199 288.077 346.603 258.556 328.014 232.82C325.544 229.401 322.994 225.97 320.432 222.618C273.812 161.65 212.985 112.688 144.518 81.028C62.3843 43.1516 -21.394 31.8997 -91.3791 49.3532C-163.218 67.4176 -236.331 132.889 -230.324 218.649L-230.597 218.672C-232.045 197.986 -229.007 177.674 -221.564 158.301C-214.696 140.423 -204.205 123.601 -190.379 108.304C-164.843 80.0489 -128.783 58.4599 -91.4418 49.0697C-54.5475 39.8695 -14.158 38.531 28.6091 45.0951C67.0683 50.9928 106.103 62.9928 144.628 80.7591C213.132 112.44 273.997 161.428 320.636 222.428C323.199 225.78 325.754 229.217 328.224 232.636C346.821 258.387 364.428 287.916 383.633 325.574C388.704 335.499 393.748 345.698 398.629 355.559C410.672 379.901 423.126 405.073 437.203 428.705C438.121 430.245 439.054 431.794 439.981 433.311C481.333 500.752 535.815 546.265 597.542 564.935C658.475 583.364 728.507 576.867 805.693 545.628C812.152 543.009 818.763 540.163 825.342 537.167C890.425 507.538 952.476 462.309 1012.48 418.567C1015.65 416.261 1018.81 413.958 1021.97 411.658C1030.04 405.798 1038.14 399.865 1045.99 394.128C1108.99 348.028 1168.51 304.484 1235.09 278.447C1256.6 269.989 1275.69 265.246 1293.46 263.94C1315.7 262.306 1336.15 266.231 1354.25 275.601C1369.79 283.676 1385.33 296.026 1401.76 313.36C1416.25 328.654 1429.57 345.76 1442.44 362.301C1449.98 371.984 1457.1 381.132 1464.29 389.721C1532.18 470.878 1602.88 558.233 1680.44 656.779L1680.23 656.969Z" fill="#FFE492"/>
<path d="M1677.34 654.214C1606.55 562.387 1535.19 471.525 1465.22 384.155C1458.1 375.311 1451.04 365.81 1443.56 355.753C1419.26 323.038 1391.71 285.959 1357.29 268.333C1324.48 251.566 1285.5 254.223 1238.13 276.452C1181.81 302.796 1131.97 341.532 1079.2 382.541C1062.67 395.383 1045.59 408.666 1028.35 421.479C998.262 443.892 965.716 467.608 931.6 489.209C895.063 512.344 861.683 529.83 829.552 542.672C822.802 545.369 816.007 547.909 809.352 550.215C772.534 562.966 736.504 570.223 702.263 571.783C664.357 573.508 628.788 568.212 596.539 556.031C536.988 533.258 484.94 485.611 441.843 414.412C440.925 412.892 439.998 411.337 439.084 409.797C425.716 387.2 413.48 363.36 401.647 340.304C396.077 329.453 390.319 318.23 384.525 307.309C364.595 269.675 346.644 240.414 328.033 215.224C325.528 211.834 322.946 208.435 320.353 205.118C273.166 144.738 211.892 96.5214 143.158 65.6708C60.4926 28.6419 -23.512 18.3983 -93.3827 36.8251C-165.658 55.9942 -236.938 120.598 -233.331 206.983L-233.604 206.994C-234.468 186.303 -231.038 166.014 -223.412 146.69C-216.345 128.789 -205.794 111.95 -192.047 96.6413C-179.097 82.2184 -163.747 69.6075 -146.426 59.1564C-129.609 49.0122 -111.786 41.4018 -93.4508 36.5387C-56.5975 26.8212 -16.1642 24.9624 26.7282 31.0209C65.2802 36.4656 104.486 48.0302 143.262 65.399C212.037 96.2672 273.346 144.513 320.56 204.922C323.153 208.242 325.74 211.644 328.246 215.034C346.865 240.239 364.824 269.511 384.762 307.157C390.556 318.081 396.314 329.304 401.885 340.158C413.717 363.211 425.951 387.048 439.313 409.636C440.224 411.179 441.154 412.731 442.07 414.251C485.134 485.395 537.135 533.004 596.629 555.753C657.912 578.9 731.441 576.889 809.267 549.934C815.917 547.628 822.712 545.091 829.457 542.397C901.296 513.688 967.025 466.802 1028.19 421.236C1045.43 408.423 1062.51 395.143 1079.04 382.302C1131.82 341.283 1181.67 302.539 1238.02 276.183C1285.47 253.919 1324.52 251.262 1357.4 268.067C1372.82 275.961 1388.12 288.335 1404.2 305.891C1418.37 321.372 1431.28 338.758 1443.78 355.569C1451.25 365.625 1458.31 375.124 1465.43 383.962C1535.4 471.335 1606.76 562.197 1677.55 654.027L1677.34 654.214Z" fill="#FFE492"/>
<path d="M1674.45 651.464C1604.75 559.129 1534.73 467.255 1466.36 378.395C1459.46 369.454 1452.61 359.787 1445.36 349.552C1421.65 316.074 1394.78 278.127 1360.45 260.799C1327.24 244.062 1288.2 248.44 1241.08 274.179C1191.71 301.107 1146.35 339.13 1102.49 375.905C1080.5 394.343 1057.75 413.41 1034.58 431.053C998 458.929 967.224 480.193 937.721 497.977C901.342 519.905 867.302 536.236 833.66 547.903C826.754 550.3 819.775 552.527 812.918 554.523C777.19 564.918 742.106 570.179 708.544 570.182C706.679 570.182 704.825 570.164 702.971 570.132C664.168 569.454 628.048 561.616 595.614 546.839C579.959 539.667 564.628 530.564 550.05 519.779C536.347 509.644 522.881 497.705 510.026 484.297C486.897 460.174 465.277 431.077 443.934 395.348C443.018 393.811 442.105 392.271 441.197 390.725C428.813 369.644 417.098 347.608 405.769 326.297C399.228 313.996 392.467 301.274 385.656 288.891C364.687 250.74 346.924 222.59 328.055 197.622C325.516 194.264 322.902 190.897 320.276 187.612C272.517 127.831 210.798 80.3573 141.797 50.3162C58.6026 14.1378 -25.631 4.8996 -95.3871 24.2996C-166.307 44.0795 -237.495 109.174 -236.336 195.316L-236.609 195.319C-237.149 155.195 -222.314 117.041 -193.711 84.9837C-180.782 70.4936 -165.514 57.7922 -148.326 47.2242C-131.602 36.9426 -113.815 29.1335 -95.4552 24.0132C-58.6455 13.7754 -18.1687 11.3994 24.8492 16.9522C63.4939 21.9411 102.875 33.0731 141.898 50.0415C210.943 80.103 272.697 127.606 320.486 187.422C323.112 190.71 325.732 194.08 328.27 197.438C347.148 222.42 364.919 250.579 385.893 288.745C392.704 301.131 399.468 313.853 406.006 326.154C417.335 347.462 429.048 369.495 441.428 390.57C442.336 392.116 443.247 393.656 444.163 395.191C489.515 471.113 539.09 520.63 595.721 546.571C674.158 582.308 757.088 570.468 812.847 554.242C819.698 552.246 826.673 550.022 833.576 547.626C910.95 520.791 981.554 471.104 1034.42 430.817C1057.59 413.179 1080.33 394.112 1102.32 375.677C1146.2 338.896 1191.56 300.862 1240.96 273.922C1262.04 262.404 1281.12 255.331 1299.29 252.303C1321.7 248.568 1342.31 251.339 1360.56 260.539C1375.93 268.299 1391.09 280.772 1406.9 298.67C1420.83 314.44 1433.41 332.201 1445.58 349.379C1452.83 359.611 1459.67 369.276 1466.57 378.21C1534.94 467.071 1604.96 558.945 1674.66 651.28L1674.45 651.464Z" fill="#FFE492"/>
<path d="M1671.56 648.708L1467.49 372.631C1460.83 363.615 1454.21 353.804 1447.2 343.42C1424.08 309.15 1397.87 270.309 1363.61 253.268C1330.47 236.79 1290.24 243.062 1244.03 271.911C1199.6 299.643 1159.08 336.523 1119.9 372.19C1094.36 395.439 1067.95 419.477 1040.81 440.633C959.249 504.222 887.968 541.78 816.489 558.833C786.836 565.906 757.584 569.466 729.216 569.466C720.616 569.466 712.104 569.138 703.682 568.484C663.964 565.398 627.293 555.022 594.693 537.651C564.478 521.547 536.838 498.816 510.2 468.152C488.928 443.667 468.537 414.476 446.031 376.287C434.151 356.133 422.648 335.193 411.525 314.942C386.349 269.117 360.316 221.73 328.087 180.025C278.651 116.059 213.762 65.896 140.434 34.9577C56.713 -0.367307 -27.7495 -8.60309 -97.3911 11.7701C-164.816 31.4945 -237.997 93.6925 -239.344 183.649L-239.616 183.643C-239.014 143.435 -223.716 105.286 -195.377 73.3223C-169.754 44.421 -134.981 22.4609 -97.462 11.4866C-60.6932 0.731579 -20.1727 -2.16468 22.9678 2.88259C61.7052 7.41256 101.26 18.115 140.535 34.6859C176.819 49.9943 211.278 70.1454 242.959 94.581C274.905 119.221 303.617 147.903 328.294 179.832C360.537 221.552 386.578 268.95 411.759 314.788C422.883 335.035 434.386 355.972 446.262 376.123C479.1 431.845 525.662 500.528 594.815 537.382C674.122 579.645 759.103 572.216 816.429 558.541C887.873 541.5 959.12 503.956 1040.65 440.391C1067.77 419.243 1094.18 395.205 1119.72 371.962C1158.91 336.289 1199.44 299.4 1243.89 271.653C1290.18 242.755 1330.5 236.477 1363.72 252.999C1379.06 260.629 1394.08 273.211 1409.64 291.468C1423.33 307.54 1435.58 325.692 1447.42 343.245C1454.43 353.628 1461.05 363.434 1467.71 372.447L1671.78 648.524L1671.56 648.708Z" fill="#FFE492"/>
<path d="M1669.92 627.484C1617.95 550.615 1573.37 488.239 1529.61 431.187C1508.37 403.473 1486.67 376.193 1465.13 350.107C1458.61 342.216 1452.16 333.822 1445.32 324.935C1428.14 302.597 1410.38 279.5 1389.94 262.36C1378.97 253.139 1368.4 246.537 1357.64 242.176C1324.62 228.66 1285.87 237.597 1242.48 268.742C1220.02 284.837 1199.57 303.153 1182.53 318.946C1164.49 335.666 1146.69 354.105 1129.48 371.935C1104.75 397.566 1079.17 424.068 1051.67 446.829C1034.94 460.72 1017.97 473.132 1001.25 483.723C967.799 504.912 931.892 522.371 894.529 535.616C871.444 543.709 848.247 549.826 825.588 553.795C806.058 557.203 786.493 559.169 767.433 559.64C738.906 560.347 711.112 557.65 684.824 551.615C656.872 545.197 630.42 534.953 606.204 521.164C584.611 508.869 564.214 493.388 543.85 473.833C505.904 437.424 475.637 395.325 453.51 362.715C442.639 346.62 432.025 330.207 421.76 314.335C392.203 268.623 364.284 225.448 329.347 186.99C300.853 155.829 268.343 128.939 232.711 107.06C205.329 90.2469 175.548 76.4962 144.197 66.1883C136.729 63.7363 129.12 61.4508 121.586 59.4021C89.1527 50.5964 52.6401 44.8624 13.0657 42.3577C-26.8331 39.7742 -61.3526 42.0099 -92.4587 49.1994C-110.044 53.2326 -127.082 59.5599 -143.105 68.0032C-199.673 97.8134 -235.998 147.856 -240.273 201.871L-240.614 201.839C-239.474 187.44 -236.129 173.256 -230.673 159.678C-225.49 146.781 -218.371 134.343 -209.516 122.708C-192.784 100.73 -169.871 81.6984 -143.255 67.673C-127.207 59.2151 -110.142 52.8789 -92.5296 48.84C-61.3908 41.6446 -26.844 39.4059 13.0875 41.9924C52.6837 44.497 89.2154 50.237 121.671 59.0485C129.212 61.1001 136.825 63.3856 144.298 65.8405C175.674 76.1543 205.479 89.9166 232.883 106.745C268.539 128.638 301.077 155.552 329.584 186.732C364.543 225.214 392.467 268.401 422.035 314.124C432.298 329.997 442.912 346.407 453.779 362.498C475.896 395.094 506.149 437.173 544.074 473.559C564.416 493.093 584.791 508.559 606.36 520.84C653.753 547.824 707.941 560.756 767.422 559.275C786.466 558.804 806.017 556.837 825.53 553.432C848.174 549.464 871.354 543.352 894.419 535.266C931.761 522.029 967.646 504.582 1001.08 483.405C1017.79 472.822 1034.74 460.416 1051.46 446.537C1078.94 423.787 1104.51 397.291 1129.24 371.669C1146.46 353.836 1164.26 335.392 1182.31 318.666C1199.35 302.863 1219.81 284.542 1242.29 268.436C1261.61 254.568 1280.31 244.988 1297.89 239.958C1319.48 233.78 1339.63 234.411 1357.76 241.834C1368.55 246.21 1379.15 252.829 1390.15 262.07C1410.62 279.237 1428.39 302.349 1445.58 324.701C1452.42 333.585 1458.87 341.979 1465.38 349.864C1486.93 375.954 1508.63 403.236 1529.88 430.957C1573.64 488.014 1618.23 550.396 1670.19 627.271L1669.92 627.484Z" fill="#FFE492"/>
<path d="M1668.27 606.256C1620.09 528.086 1574.88 462.673 1530.03 406.282C1508.16 378.737 1485.53 352.259 1462.76 327.584C1456.72 321.037 1450.76 314.233 1444.44 307.032C1425.53 285.466 1405.98 263.167 1384.08 247.739C1373.02 239.915 1362.42 234.468 1351.68 231.083C1310.54 218.119 1268.75 242.68 1240.93 265.567C1221.22 281.734 1203.22 300.015 1184.99 318.886C1169.03 335.404 1154.02 353.174 1138.12 371.983C1114.53 399.905 1090.13 428.777 1062.52 453.02C1046.14 467.484 1029.04 479.99 1011.71 490.189C979.411 509.192 944.046 523.948 903.591 535.305C880.951 541.659 857.765 546.186 834.677 548.755C815.197 550.897 795.752 551.663 776.88 551.022C748.803 550.081 721.358 545.85 695.304 538.447C667.942 530.67 641.833 519.307 617.707 504.674C596.569 491.855 576.159 475.951 555.309 456.054C517.445 419.969 485.008 379.965 460.983 349.143C452.089 337.734 443.337 326.254 434.871 315.148C401.159 270.924 369.317 229.149 330.607 193.955C301.676 167.652 269.196 145.411 234.074 127.853C207.499 114.567 179.332 104.612 147.967 97.4199C140.729 95.7628 133.365 94.2694 126.082 92.9805C94.0956 87.3487 59.9577 85.2182 18.6548 83.0146C-11.118 81.3458 -50.0926 80.2469 -87.5349 86.6239C-105.268 89.5874 -122.409 94.7341 -138.487 101.915C-195.093 127.204 -233.492 171.381 -241.208 220.095L-241.612 220.022C-239.567 207.104 -235.423 194.434 -229.302 182.361C-223.467 170.858 -215.801 159.828 -206.517 149.57C-188.874 130.082 -165.405 113.462 -138.645 101.509C-122.537 94.3132 -105.363 89.1578 -87.6003 86.1885C-50.1226 79.8027 -11.118 80.9045 18.6739 82.5733C59.9904 84.7769 94.1392 86.9074 126.148 92.5421C133.435 93.8339 140.805 95.3273 148.052 96.9844C179.447 104.186 207.641 114.149 234.246 127.449C269.403 145.026 301.911 167.284 330.871 193.613C369.608 228.833 401.464 270.62 435.188 314.862C443.651 325.964 452.402 337.444 461.296 348.851C485.316 379.661 517.739 419.65 555.582 455.718C576.407 475.594 596.795 491.481 617.909 504.285C665.349 533.057 718.842 548.632 776.893 550.578C795.749 551.215 815.175 550.453 834.637 548.31C857.702 545.744 880.869 541.223 903.488 534.872C943.91 523.527 979.245 508.783 1011.51 489.798C1028.83 479.61 1045.9 467.121 1062.27 452.672C1089.85 428.45 1114.24 399.59 1137.82 371.682C1153.72 352.864 1168.74 335.092 1184.71 318.565C1202.95 299.682 1220.95 281.395 1240.68 265.21C1258.72 250.372 1276.5 239.699 1293.55 233.48C1314.22 225.94 1333.82 224.99 1351.8 230.654C1362.58 234.053 1373.22 239.518 1384.31 247.365C1406.25 262.822 1425.82 285.142 1444.74 306.725C1451.06 313.923 1457.02 320.724 1463.06 327.268C1485.83 351.952 1508.47 378.439 1530.35 405.993C1575.2 462.399 1620.43 527.823 1668.62 606.01L1668.27 606.256Z" fill="#FFE492"/>
<path d="M1666.63 585.025C1621.54 504.494 1577 437.88 1530.46 381.378C1507.96 354.002 1484.39 328.328 1460.4 305.061C1455.27 300.087 1450 294.809 1444.89 289.706C1423.81 268.622 1402.02 246.823 1378.22 233.119C1367.05 226.643 1356.42 222.347 1345.73 219.988C1304.67 210.931 1265.24 238.047 1239.38 262.386C1221.86 278.816 1205.84 297.439 1190.35 315.451L1187.45 318.823C1173.38 335.163 1160.19 353.085 1146.22 372.061C1123.98 402.277 1100.98 433.519 1073.38 459.209C1057.32 474.266 1040.09 486.865 1022.16 496.656C990.887 513.726 956.086 525.908 912.646 534.991C890.183 539.687 867.008 542.622 843.762 543.709C824.331 544.583 805.006 544.144 786.319 542.4C729.745 537.142 676.885 518.899 629.205 488.18C608.593 474.9 588.169 458.577 566.769 438.271C530.554 403.981 498.343 368.735 468.459 335.573C464.451 331.127 460.487 326.711 456.552 322.33C415.735 276.887 377.183 233.964 331.875 200.927C302.295 179.359 269.848 161.771 235.438 148.648C210.174 139.015 182.795 132.475 151.741 128.652C144.742 127.796 137.624 127.091 130.581 126.559C112.865 125.244 94.074 125.031 74.1792 124.806C58.1995 124.625 41.6772 124.438 24.2416 123.675C-9.43277 122.076 -47.5976 120.267 -82.616 124.055C-100.684 126.01 -117.929 129.973 -133.873 135.836C-190.458 156.644 -230.935 194.962 -242.149 238.336L-242.609 238.199C-239.654 226.763 -234.714 215.607 -227.927 205.042C-221.439 194.939 -213.226 185.312 -203.52 176.43C-184.956 159.444 -160.925 145.241 -134.031 135.351C-118.052 129.473 -100.771 125.502 -82.6678 123.543C-47.6139 119.753 -9.43005 121.565 24.2579 123.163C41.6826 123.923 58.2049 124.113 74.1792 124.294C94.0822 124.52 112.878 124.733 130.611 126.051C137.659 126.586 144.786 127.29 151.79 128.146C182.883 131.972 210.294 138.522 235.593 148.169C270.044 161.306 302.527 178.914 332.139 200.506C377.488 233.572 416.059 276.516 456.893 321.98C460.827 326.361 464.794 330.774 468.8 335.222C498.679 368.378 530.878 403.616 567.083 437.895C588.461 458.177 608.863 474.485 629.45 487.748C677.067 518.429 729.859 536.645 786.36 541.897C805.025 543.639 824.331 544.077 843.74 543.203C866.962 542.116 890.115 539.185 912.553 534.494C955.95 525.419 990.71 513.253 1021.94 496.206C1039.83 486.435 1057.04 473.86 1073.06 458.829C1100.62 433.172 1123.61 401.947 1145.84 371.748C1159.82 352.763 1173.02 334.833 1187.1 318.481L1190 315.109C1205.5 297.088 1221.52 278.454 1239.06 262.006C1265 237.588 1304.57 210.393 1345.82 219.491C1356.56 221.861 1367.23 226.172 1378.45 232.675C1402.29 246.408 1424.11 268.231 1445.21 289.338C1450.31 294.44 1455.59 299.719 1460.72 304.69C1484.71 327.968 1508.3 353.657 1530.81 381.048C1577.37 437.573 1621.92 504.21 1667.03 584.768L1666.63 585.025Z" fill="#FFE492"/>
<path d="M1664.98 563.791C1623.58 482.044 1578.47 412.292 1530.89 356.476C1507.76 329.273 1483.25 304.399 1458.04 282.544C1454.4 279.388 1450.68 276.112 1447.07 272.944C1423.25 252.015 1398.62 230.371 1372.38 218.505C1361.12 213.358 1350.46 210.217 1339.78 208.896C1298.84 203.834 1261.75 233.46 1237.84 259.205C1223 275.109 1209.6 292.797 1196.64 309.902C1194.4 312.863 1192.16 315.818 1189.91 318.761C1177.59 334.928 1166.06 352.99 1153.86 372.109C1133.12 404.614 1111.67 438.223 1084.24 465.403C1068.13 481.363 1051.24 493.703 1032.61 503.131C993.624 522.849 954.666 530.147 921.7 534.689C899.403 537.757 876.239 539.102 852.846 538.675C833.475 538.28 814.267 536.635 795.76 533.788C740.885 525.368 688.717 504.478 640.707 471.696C620.73 458.059 600.296 441.313 578.231 420.501C555.942 399.529 535.172 379.348 515.083 359.832C501.432 346.566 488.536 334.037 475.942 322.016C428.339 276.576 384.735 236.625 333.153 207.908C302.938 191.089 270.524 178.147 236.808 169.447C212.644 163.21 186.814 160.174 155.522 159.884C148.772 159.832 141.895 159.916 135.087 160.139C124.746 160.498 114.047 161.249 102.725 162.047C80.9948 163.576 56.3613 165.309 29.8275 164.338C19.7233 163.967 9.41464 163.444 -0.555969 162.935C-26.2009 161.629 -52.7184 160.279 -77.7008 161.486C-96.047 162.374 -113.398 165.157 -129.266 169.757C-185.755 186.138 -228.307 218.599 -243.095 256.589L-243.6 256.364C-239.728 246.416 -233.992 236.777 -226.551 227.714C-219.405 219.011 -210.648 210.79 -200.527 203.281C-181.025 188.815 -156.435 177.028 -129.413 169.193C-113.507 164.581 -96.1179 161.79 -77.7308 160.901C-52.7211 159.691 -26.1927 161.045 -0.534164 162.351C9.43373 162.859 19.7424 163.383 29.8439 163.754C56.3531 164.724 80.9675 162.994 102.686 161.465C114.015 160.668 124.716 159.916 135.068 159.557C141.885 159.335 148.766 159.25 155.525 159.303C186.86 159.589 212.728 162.634 236.934 168.88C270.69 177.592 303.148 190.548 333.401 207.391C356.701 220.361 380.312 236.794 405.584 257.627C428.208 276.275 450.216 296.681 476.302 321.581C488.896 333.604 501.792 346.133 515.446 359.399C535.532 378.913 556.302 399.093 578.585 420.063C600.628 440.854 621.041 457.583 640.993 471.205C688.938 503.943 741.032 524.804 795.831 533.213C814.316 536.056 833.5 537.699 852.849 538.093C876.215 538.52 899.354 537.179 921.624 534.11C954.548 529.577 993.455 522.288 1032.37 502.605C1050.96 493.203 1067.8 480.896 1083.86 464.977C1111.25 437.844 1132.68 404.26 1153.4 371.782C1165.61 352.651 1177.14 334.581 1189.48 318.395C1191.73 315.452 1193.97 312.498 1196.21 309.54C1209.17 292.423 1222.58 274.724 1237.45 258.798C1253 242.049 1268.96 229.164 1284.88 220.501C1303.73 210.24 1322.22 206.143 1339.83 208.323C1350.56 209.65 1361.27 212.806 1372.58 217.973C1398.89 229.871 1423.55 251.542 1447.4 272.497C1451.01 275.665 1454.74 278.941 1458.37 282.094C1483.6 303.967 1508.12 328.864 1531.27 356.088C1556.54 385.725 1581.28 419.493 1604.81 456.452C1625.61 489.117 1646.01 525.141 1665.44 563.517L1664.98 563.791Z" fill="#FFE492"/>
<path d="M1663.33 542.554C1625.02 458.464 1580.6 387.48 1531.31 331.575C1507.55 304.544 1482.11 280.474 1455.69 260.027C1454.43 259.054 1453.18 258.081 1451.92 257.105C1424.45 235.817 1396.04 213.804 1366.54 203.894C1355.12 200.053 1344.42 198.063 1333.85 197.806C1293.07 196.818 1258.3 228.919 1236.31 256.02C1223.37 271.875 1211.88 289.253 1200.78 306.058C1198.03 310.214 1195.19 314.51 1192.39 318.695C1181.71 334.635 1171.78 352.757 1161.27 371.947C1142.16 406.851 1122.39 442.942 1095.11 471.595C1079.32 488.171 1062.3 500.604 1043.06 509.605C1005.17 527.337 966.689 531.992 930.755 534.383C908.597 535.856 885.441 535.605 861.931 533.638C842.622 531.972 823.537 529.122 805.202 525.171C752.194 513.773 700.719 490.235 652.213 455.208C632.787 441.182 612.922 424.506 589.701 402.727C545.568 361.449 512.796 332.375 483.443 308.46C425.062 260.895 380.503 232.912 334.456 214.891C303.628 202.827 271.246 194.536 238.204 190.245C215.281 187.27 190.952 187.536 159.326 191.116C152.845 191.858 146.214 192.732 139.616 193.717C133.384 194.661 127.053 195.743 120.348 196.885C95.595 201.108 67.5371 205.896 35.425 205.001C18.4993 204.531 1.21086 203.242 -15.5077 201.997C-34.5083 200.582 -54.1551 199.118 -72.7822 198.919C-91.4583 198.721 -108.916 200.322 -124.656 203.683C-180.957 215.698 -225.589 242.308 -244.044 274.862L-244.567 274.52C-239.774 266.062 -233.242 257.941 -225.152 250.38C-217.344 243.079 -208.047 236.267 -197.517 230.127C-177.063 218.197 -151.909 208.827 -124.775 203.037C-108.992 199.67 -91.4965 198.063 -72.7767 198.262C-54.1333 198.461 -34.4756 199.925 -15.4668 201.342C1.24631 202.587 18.5265 203.876 35.4387 204.347C67.4935 205.238 95.5214 200.457 120.248 196.239C126.955 195.094 133.291 194.015 139.526 193.068C146.132 192.084 152.769 191.21 159.255 190.464C190.931 186.881 215.3 186.612 238.273 189.596C271.361 193.893 303.789 202.196 334.661 214.277C380.77 232.321 425.375 260.334 483.808 307.94C513.172 331.864 545.955 360.946 590.099 402.236C613.304 423.998 633.147 440.656 652.551 454.667C700.992 489.644 752.39 513.151 805.319 524.531C823.63 528.476 842.693 531.32 861.974 532.986C885.457 534.95 908.583 535.201 930.714 533.731C966.594 531.344 1005.01 526.7 1042.81 509.009C1061.98 500.043 1078.94 487.651 1094.67 471.133C1121.9 442.541 1141.65 406.489 1160.74 371.622C1171.25 352.421 1181.19 334.284 1191.88 318.321C1194.69 314.139 1197.53 309.842 1200.27 305.687C1211.39 288.867 1222.88 271.478 1235.84 255.597C1250.19 237.909 1265.24 223.919 1280.56 214.011C1298.5 202.406 1316.44 196.739 1333.86 197.157C1344.49 197.414 1355.24 199.416 1366.72 203.274C1396.32 213.219 1424.77 235.261 1452.27 256.582C1453.53 257.558 1454.79 258.534 1456.05 259.504C1482.49 279.974 1507.97 304.073 1531.76 331.133C1581.09 387.089 1625.54 458.127 1663.88 542.277L1663.33 542.554Z" fill="#FFE492"/>
<path d="M944.322 534.079C942.792 534.079 941.285 534.076 939.801 534.067C917.758 533.968 894.611 532.127 871.008 528.59C851.77 525.653 832.805 521.6 814.639 516.547C788.683 509.339 762.634 498.982 737.21 485.763C712.659 472.997 687.932 457.169 663.716 438.713C639.988 420.631 617.825 400.483 601.166 384.949C562.189 348.704 525.104 318.408 490.941 294.902C435.611 256.833 386.303 233.625 335.763 221.867C305.273 214.774 272.561 211.033 241.065 211.033C240.577 211.033 240.092 211.033 239.604 211.036C212.546 211.136 186.858 216.525 163.132 222.335C156.957 223.857 150.569 225.52 144.145 227.283C140.625 228.259 137.1 229.264 133.37 230.328C107.063 237.842 77.2438 246.355 41.0175 245.657C18.955 245.23 -3.57904 242.781 -25.3715 240.411C-39.4427 238.879 -53.991 237.298 -67.8687 236.343C-86.9456 235.03 -104.501 235.451 -120.053 237.599C-176.054 245.327 -222.766 266.088 -245.011 293.14L-245.524 292.658C-234.114 278.784 -216.951 266.772 -194.512 256.953C-173.082 247.577 -147.364 240.633 -120.14 236.877C-104.548 234.726 -86.9456 234.3 -67.825 235.618C-53.9338 236.574 -39.3773 238.158 -25.3006 239.689C-3.52177 242.059 18.9987 244.508 41.0311 244.932C77.1647 245.631 106.932 237.129 133.196 229.63C136.928 228.563 140.454 227.557 143.976 226.581C150.405 224.819 156.799 223.153 162.98 221.63C186.746 215.812 212.478 210.414 239.601 210.311C271.599 210.192 304.897 213.944 335.907 221.16C361.991 227.23 387.279 236.164 413.21 248.474C438.184 260.331 463.731 275.318 491.306 294.294C525.496 317.818 562.609 348.137 601.61 384.406C618.255 399.93 640.402 420.064 664.106 438.125C713.245 475.575 763.948 501.723 814.808 515.848C832.949 520.895 851.89 524.943 871.1 527.877C894.673 531.408 917.788 533.249 939.801 533.345C974.247 533.497 1014.24 532.252 1053.25 515.404C1073 506.876 1090.08 494.405 1105.48 477.282C1132.51 447.209 1150.44 408.61 1167.78 371.28C1176.69 352.079 1185.12 333.942 1194.27 318.242C1197.21 313.212 1200.17 308.03 1203.03 303.018C1212.71 286.085 1222.71 268.579 1234.23 252.396C1247.4 233.78 1261.53 218.679 1276.23 207.514C1293.27 194.57 1310.64 187.328 1327.86 185.99C1338.5 185.163 1349.28 186.007 1360.85 188.573C1391.77 195.43 1422.42 215.35 1453.71 236.91C1480.99 255.708 1508.14 279.658 1532.23 306.174C1558.98 335.543 1584.12 369.997 1606.95 408.578C1627.28 442.95 1645.9 480.786 1662.3 521.036L1661.68 521.328C1626.46 434.89 1582.75 362.673 1531.74 306.686C1507.69 280.207 1480.58 256.292 1453.34 237.526C1422.1 216.004 1391.52 196.122 1360.71 189.289C1349.21 186.738 1338.48 185.899 1327.91 186.72C1296.27 189.184 1263.19 212.664 1234.77 252.841C1223.27 268.994 1213.28 286.485 1203.61 303.401C1200.75 308.416 1197.79 313.601 1194.85 318.63C1185.71 334.301 1177.29 352.424 1168.39 371.608C1159.88 389.923 1151.08 408.865 1140.99 427.072C1129.55 447.714 1118.09 464.303 1105.97 477.79C1090.51 494.99 1073.35 507.516 1053.51 516.085C1036.02 523.643 1017.21 528.637 996.023 531.361C978.081 533.655 960.059 534.079 944.322 534.079Z" fill="#FFE492"/>
<path d="M988.043 535.545C974.141 535.545 960.787 534.657 948.84 533.757C926.873 532.103 903.736 528.669 880.076 523.548C860.92 519.343 842.075 514.088 824.064 507.924C774.745 491.082 726.053 463.045 675.208 422.22C653.034 404.419 632.13 385.264 612.625 367.174C574.117 331.562 535.701 302.687 498.439 281.347C443.637 249.961 392.364 233.276 337.077 228.84C305.575 226.312 272.356 227.344 241.008 231.821C214.768 235.568 190.031 244.61 166.938 253.547C161.161 255.795 155.016 258.25 148.677 260.842C147.093 261.494 145.495 262.157 143.875 262.826C117.279 273.85 87.1843 286.324 48.5615 286.324C47.9099 286.324 47.261 286.321 46.6039 286.312C20.4736 286.029 -6.20464 282.031 -32.0077 278.161C-42.2374 276.627 -52.816 275.043 -62.9665 273.76C-82.7932 271.258 -99.9644 270.519 -115.464 271.506C-171.839 275.101 -219.424 289.644 -246.012 311.414L-246.467 310.774C-233.323 300.013 -214.317 290.67 -191.51 283.755C-169.077 276.954 -142.797 272.442 -115.511 270.703C-99.9671 269.712 -82.7523 270.451 -62.882 272.959C-52.7205 274.242 -42.1392 275.829 -31.9069 277.36C-6.1283 281.224 20.5255 285.219 46.6066 285.503C86.0338 285.935 116.619 273.254 143.6 262.069C145.217 261.4 146.817 260.737 148.401 260.082C154.746 257.487 160.894 255.032 166.677 252.784C189.808 243.83 214.591 234.776 240.901 231.017C272.299 226.534 305.573 225.499 337.126 228.03C364.524 230.228 390.646 235.419 416.984 243.894C444.109 252.624 470.866 264.638 498.785 280.631C536.094 302 574.558 330.91 613.108 366.557C632.604 384.642 653.495 403.785 675.65 421.568C726.427 462.338 775.045 490.333 824.285 507.15C842.268 513.302 861.089 518.551 880.218 522.75C903.845 527.865 926.949 531.296 948.883 532.944C985.794 535.721 1025.06 537.147 1063.69 521.783C1084.01 513.696 1101.22 501.147 1116.27 483.416C1143.09 451.832 1159.79 408.75 1174.52 370.739C1181.93 351.614 1188.93 333.549 1196.65 318.15C1199.44 312.595 1202.25 306.852 1204.96 301.299C1213.44 283.924 1222.22 265.959 1232.6 249.181C1244.62 229.635 1257.84 213.423 1271.89 200.997C1288.03 186.726 1304.84 177.911 1321.86 174.805C1332.49 172.861 1343.32 172.551 1354.96 173.849C1387.47 177.482 1420.5 195.432 1451.36 214.291C1479.84 231.704 1507.97 254.839 1532.69 281.195C1560.19 310.426 1585.53 345.225 1608 384.618C1628.1 419.847 1645.84 458.588 1660.73 499.773L1660.03 500.063C1628.38 412.52 1584.16 337.033 1532.17 281.762C1507.49 255.456 1479.42 232.364 1450.99 214.987C1420.21 196.171 1387.26 178.265 1354.89 174.647C1343.32 173.355 1332.56 173.665 1321.99 175.594C1290.57 181.331 1259.05 207.619 1233.23 249.619C1222.87 266.363 1214.1 284.31 1205.63 301.667C1202.91 307.223 1200.11 312.966 1197.32 318.527C1189.61 333.891 1182.62 351.938 1175.21 371.043C1160.46 409.112 1143.74 452.264 1116.83 483.953C1101.69 501.781 1084.39 514.401 1063.95 522.534C1046.21 529.589 1027.08 533.675 1005.45 535.016C999.6 535.396 993.777 535.545 988.043 535.545Z" fill="#FFE492"/>
<path d="M1015.48 538.708C1015.29 538.708 1015.09 538.708 1014.89 538.708C995.243 538.656 975.954 536.078 957.877 533.442C935.943 530.245 912.82 525.215 889.146 518.499C870.078 513.031 851.352 506.569 833.494 499.298C786.147 480.047 739.505 450.315 686.708 405.726C667.694 389.672 648.982 372.385 630.884 355.671C628.621 353.578 626.355 351.489 624.089 349.399C585.382 313.797 545.633 286.339 505.95 267.792C451.609 242.398 396.805 231.935 338.404 235.808C306.382 237.933 273.193 243.74 242.425 252.601C218.149 259.595 196.517 270.814 170.758 284.755C165.537 287.593 159.961 290.656 153.216 294.397L152.839 294.607C139.826 301.872 125.076 310.105 108.532 316.365C89.5314 323.555 71.0979 327.015 52.1955 326.974C22.7198 326.895 -7.36107 321.015 -36.4495 315.325C-43.5764 313.931 -50.9488 312.49 -58.0648 311.187C-78.4722 307.455 -95.747 305.57 -110.876 305.426C-166.583 304.9 -216.21 313.75 -247.029 329.701L-247.384 328.912C-232.287 321.097 -211.924 314.755 -188.495 310.57C-165.023 306.376 -138.179 304.295 -110.868 304.552C-95.6952 304.696 -78.3768 306.584 -57.9257 310.325C-50.8042 311.628 -43.4319 313.069 -36.3023 314.463C-7.24927 320.144 22.7935 326.019 52.1982 326.098C52.329 326.098 52.4626 326.098 52.5935 326.098C94.6544 326.098 126.698 308.212 152.463 293.83L152.842 293.619C159.59 289.875 165.166 286.812 170.39 283.975C196.193 270.011 217.863 258.77 242.215 251.756C273.035 242.878 306.278 237.062 338.355 234.934C366.934 233.04 393.89 234.484 420.77 239.353C449.736 244.599 477.707 253.638 506.277 266.992C546.037 285.573 585.854 313.075 624.624 348.736C626.89 350.825 629.155 352.918 631.418 355.011C649.508 371.719 668.214 389 687.212 405.042C739.942 449.576 786.515 479.266 833.783 498.485C851.617 505.748 870.315 512.198 889.356 517.66C912.997 524.367 936.088 529.388 957.986 532.58C997.212 538.302 1035.61 542.271 1074.14 528.196C1095.04 520.556 1112.36 507.928 1127.08 489.586C1153.66 456.453 1168.18 410.542 1181 370.033C1186.99 351.068 1192.66 333.153 1199.05 318.099C1201.51 312.306 1203.98 306.315 1206.36 300.519C1213.82 282.399 1221.54 263.666 1230.99 246.002C1241.88 225.517 1254.18 208.193 1267.56 194.509C1282.81 178.914 1299.06 168.533 1315.86 163.658C1326.28 160.637 1336.91 159.164 1348.33 159.164C1348.58 159.164 1348.83 159.164 1349.08 159.166C1384.59 159.365 1421.14 176.661 1449.02 191.706C1478.71 207.737 1507.81 230.053 1533.17 256.245C1561.42 285.342 1586.96 320.483 1609.08 360.695C1628.92 396.78 1645.77 436.43 1659.16 478.55L1658.38 478.834C1638.47 416.162 1600.47 326.784 1532.6 256.88C1507.3 230.746 1478.27 208.482 1448.65 192.49C1420.86 177.485 1384.42 160.239 1349.08 160.043C1337.44 159.97 1326.65 161.437 1316.08 164.506C1284.95 173.54 1254.98 202.637 1231.7 246.437C1222.27 264.06 1214.56 282.773 1207.11 300.873C1204.72 306.671 1202.25 312.665 1199.8 318.461C1193.42 333.477 1187.76 351.369 1181.77 370.313C1168.93 410.896 1154.39 456.894 1127.7 490.156C1112.89 508.621 1095.45 521.334 1074.4 529.023C1056.56 535.537 1037.28 538.708 1015.48 538.708Z" fill="#FFE492"/>
<path d="M1037.3 542.823C1033.07 542.823 1028.75 542.677 1024.32 542.385C1004.94 541.108 986.107 537.276 966.913 533.126C944.662 528.316 922.191 521.88 898.214 513.452C879.244 506.724 860.641 499.061 842.922 490.67C797.971 469.417 753.339 438.131 698.208 389.231C684.516 377.088 670.829 364.351 657.592 352.033C650.386 345.328 642.937 338.393 635.557 331.621C596.389 295.779 555.312 269.745 513.467 254.238C458.177 233.748 401.352 229.995 339.74 242.767C307.189 249.515 274.03 260.097 243.851 273.369C219.607 284.03 198.488 299.003 176.129 314.855L174.583 315.951C171.09 318.435 167.56 320.954 163.985 323.503C161.927 324.973 159.855 326.451 157.763 327.942C144.726 337.285 130.643 347.032 114.495 354.534C95.745 363.244 77.1997 367.528 57.7928 367.633C25.4844 367.803 -7.47009 359.754 -39.3368 351.962C-43.8845 350.849 -48.5904 349.7 -53.1572 348.61C-74.5679 343.496 -91.4474 340.553 -106.285 339.343C-161.037 334.88 -212.709 338.025 -248.054 347.973L-248.281 347.055C-212.842 337.081 -161.064 333.924 -106.217 338.396C-91.3383 339.609 -74.4153 342.561 -52.9636 347.684C-48.3941 348.777 -43.6882 349.925 -39.1378 351.039C-7.66095 358.734 24.8765 366.686 56.7568 366.686C57.1003 366.686 57.4439 366.686 57.7901 366.683C99.0249 366.461 128.378 347.856 157.275 327.153C159.367 325.662 161.439 324.183 163.497 322.713C167.072 320.162 170.6 317.646 174.095 315.159L175.641 314.063C198.039 298.184 219.193 283.186 243.516 272.489C273.749 259.191 306.966 248.591 339.574 241.831C401.341 229.028 458.319 232.792 513.758 253.338C555.707 268.886 596.879 294.978 636.135 330.899C643.515 337.674 650.967 344.606 658.173 351.314C671.404 363.629 685.088 376.363 698.772 388.497C753.838 437.342 798.407 468.584 843.279 489.802C860.974 498.178 879.549 505.833 898.493 512.549C922.433 520.966 944.872 527.392 967.09 532.194C1000.82 539.486 1042.79 548.563 1084.59 534.582C1106.08 527.395 1123.51 514.688 1137.88 495.732C1164.21 461.012 1176.42 412.179 1187.19 369.097C1191.87 350.381 1196.29 332.703 1201.44 318.031C1203.45 312.315 1205.47 306.403 1207.42 300.683C1213.95 281.502 1220.7 261.67 1229.38 242.808C1239.16 221.371 1250.55 202.932 1263.23 188.004C1277.59 171.088 1293.28 159.143 1309.86 152.5C1320.49 148.236 1331.4 145.609 1343.19 144.466C1358.98 142.935 1375.79 144.571 1394.58 149.458C1410.47 153.596 1427.51 160.02 1446.67 169.1C1477.57 183.745 1507.65 205.247 1533.64 231.278C1562.64 260.238 1588.38 295.726 1610.14 336.753C1629.74 373.698 1645.7 414.257 1657.59 457.309L1656.74 457.578C1631.64 366.686 1587.71 286.564 1533.03 231.974C1507.11 206.012 1477.12 184.573 1446.31 169.971C1405.03 150.408 1372.29 142.602 1343.27 145.413C1331.56 146.547 1320.73 149.157 1310.16 153.389C1270.73 169.191 1244.9 210.966 1230.17 243.225C1221.52 262.041 1214.77 281.85 1208.25 301.008C1206.3 306.73 1204.28 312.645 1202.27 318.365C1197.13 332.992 1192.72 350.65 1188.04 369.343C1177.25 412.518 1165.02 461.453 1138.57 496.331C1124.08 515.436 1106.51 528.246 1084.85 535.491C1070.17 540.401 1054.51 542.823 1037.3 542.823Z" fill="#FFE492"/>
<path d="M1056.21 547.541C1027.38 547.541 999.658 539.601 975.943 532.809C953.632 526.42 931.172 518.436 907.277 508.402C888.413 500.424 869.931 491.557 852.345 482.044C799.629 453.56 752.633 412.677 709.703 372.737C700.937 364.583 692.082 356.178 683.521 348.05C671.633 336.763 659.34 325.093 647.022 313.847C607.267 277.651 564.863 253.035 520.989 240.681C464.233 224.703 405.382 227.658 341.076 249.717C307.966 261.075 274.84 276.433 245.277 294.132C222.476 307.78 203.184 325.011 182.76 343.254C181.312 344.546 179.862 345.844 178.403 347.141L177.612 347.848C172.647 352.288 167.513 356.876 162.309 361.482C149.838 372.567 136.105 384.033 120.221 392.792C101.782 402.959 83.1926 408.03 63.385 408.293C28.6173 408.758 -6.81828 398.28 -41.0843 388.148C-43.4863 387.437 -45.8773 386.73 -48.2575 386.032C-70.8543 379.386 -87.3384 375.446 -101.701 373.254C-155.08 365.112 -208.802 362.552 -249.093 366.231L-249.175 365.211C-208.818 361.523 -155.017 364.086 -101.568 372.24C-87.1639 374.438 -70.6444 378.386 -48.0067 385.044C-45.6265 385.742 -43.2354 386.45 -40.8307 387.163C-6.63016 397.275 28.7373 407.726 63.3714 407.27C106.387 406.697 136.68 382.928 161.698 360.693C166.903 356.087 172.037 351.499 177.001 347.062L177.792 346.355C179.251 345.054 180.701 343.76 182.149 342.468C202.608 324.193 221.933 306.932 244.811 293.237C274.428 275.506 307.617 260.122 340.785 248.744C371.272 238.287 399.908 232.249 428.325 230.285C460.026 228.096 491.282 231.261 521.229 239.693C565.242 252.085 607.772 276.772 647.638 313.067C659.964 324.319 672.26 335.992 684.151 347.281C692.712 355.409 701.562 363.811 710.324 371.962C753.211 411.858 800.15 452.698 852.77 481.129C870.331 490.627 888.787 499.483 907.624 507.45C931.483 517.468 953.908 525.441 976.186 531.821C1010.39 541.617 1052.96 553.81 1095.03 540.98C1117.1 534.247 1134.65 521.46 1148.67 501.891C1174.73 465.537 1184.48 413.7 1193.08 367.961C1196.54 349.584 1199.8 332.227 1203.82 317.974C1205.31 312.702 1206.81 307.254 1208.25 301.985C1213.91 281.375 1219.76 260.06 1227.75 239.623C1236.45 217.216 1246.92 197.658 1258.88 181.499C1272.36 163.265 1287.49 149.757 1303.84 141.349C1314.45 135.889 1325.39 132.105 1337.28 129.775C1353.3 126.64 1371.08 126.745 1390.12 130.088C1406.79 133.017 1425.02 138.537 1444.31 146.501C1476.41 159.761 1507.46 180.444 1534.1 206.314C1563.85 235.14 1589.79 270.97 1611.2 312.816C1630.53 350.619 1645.61 392.09 1656.01 436.075L1655.08 436.326C1633.05 343.126 1589.86 261.709 1533.46 207.074C1506.91 181.289 1475.96 160.673 1443.97 147.457C1402.49 130.328 1367.65 124.871 1337.46 130.784C1325.65 133.095 1314.79 136.854 1304.25 142.272C1265.35 162.277 1241.66 206.466 1228.63 240.017C1220.66 260.402 1214.82 281.687 1209.17 302.271C1207.72 307.54 1206.23 312.991 1204.74 318.269C1200.73 332.476 1197.47 349.809 1194.02 368.163C1189.88 390.167 1185.19 415.105 1178.38 438.486C1170.58 465.274 1161.11 486.217 1149.43 502.513C1142.68 511.936 1134.92 519.955 1126.37 526.35C1117.17 533.227 1106.71 538.481 1095.29 541.965C1082.22 545.954 1069.1 547.541 1056.21 547.541Z" fill="#FFE492"/>
<path d="M1073.25 552.715C1063.72 552.715 1053.73 551.722 1043.18 549.737C1022.41 545.83 1002.52 538.74 984.973 532.488C962.856 524.606 939.763 514.801 916.34 503.347C897.596 494.13 879.233 484.058 861.768 473.409C811.636 442.877 768.447 402.279 721.197 356.237C716.999 352.146 712.735 347.972 708.612 343.933C692.376 328.037 675.589 311.601 658.487 296.07C618.072 259.451 574.343 236.254 528.511 227.124C470.7 215.606 408.084 225.543 342.412 256.662C308.713 272.631 275.617 292.762 246.703 314.883C224.932 331.539 207.011 351.175 188.038 371.966C186.11 374.079 184.175 376.198 182.228 378.326C177.383 383.627 172.165 389.318 166.856 395.014C155.724 406.999 142.157 420.656 125.949 431.04C107.804 442.666 89.1689 448.526 68.9823 448.95C32.028 449.73 -5.58879 436.614 -41.9678 423.93L-43.3528 423.447C-61.1647 417.24 -80.0072 410.968 -97.1129 407.16C-149.253 395.554 -203.594 387.497 -250.121 384.472L-250.058 383.379C-203.482 386.407 -149.093 394.47 -96.9057 406.087C-79.7509 409.907 -60.8757 416.188 -43.0365 422.404L-41.6515 422.886C-5.35156 435.541 32.1889 448.625 68.9632 447.851C111.433 446.956 140.764 421.554 166.134 394.233C171.442 388.54 176.655 382.85 181.5 377.551C183.447 375.427 185.382 373.305 187.31 371.195C206.316 350.369 224.27 330.697 246.111 313.986C275.08 291.821 308.239 271.652 342 255.654C372.812 241.056 403.133 230.996 432.115 225.759C465.23 219.777 497.727 219.87 528.702 226.04C574.708 235.205 618.599 258.483 659.149 295.229C676.266 310.774 693.061 327.216 709.305 343.121C713.427 347.157 717.691 351.33 721.89 355.422C769.093 401.42 812.236 441.974 862.277 472.453C879.719 483.085 898.054 493.142 916.771 502.348C940.161 513.784 963.216 523.574 985.3 531.445C1019.92 543.784 1063 559.136 1105.48 547.373C1128.14 541.098 1145.81 528.236 1159.48 508.047C1185.25 470.01 1192.71 412.678 1198.7 366.609C1201.03 348.665 1203.24 331.717 1206.22 317.922C1207.16 313.574 1208.12 309.093 1209.04 304.759C1213.81 282.244 1218.74 258.96 1226.15 236.444C1237.58 201.406 1259.29 154.533 1297.83 130.209C1308.47 123.493 1319.45 118.548 1331.4 115.093C1362.64 105.925 1399.84 108.892 1441.96 123.905C1475.28 135.779 1507.3 155.644 1534.58 181.354C1565.08 210.042 1591.23 246.217 1612.27 288.884C1621.93 308.453 1630.46 329.355 1637.63 351.009C1644.49 371.692 1650.14 393.17 1654.44 414.846L1653.44 415.074C1634.5 319.559 1592.05 236.847 1533.9 182.175C1506.72 156.562 1474.82 136.773 1441.64 124.942C1399.71 109.996 1362.71 107.039 1331.66 116.148C1319.81 119.577 1308.91 124.484 1298.35 131.15C1260.08 155.305 1238.49 201.937 1227.11 236.804C1219.73 259.261 1214.8 282.513 1210.03 304.999C1209.11 309.333 1208.16 313.816 1207.22 318.168C1204.24 331.916 1202.04 348.84 1199.71 366.758C1196.7 389.94 1193.28 416.214 1187.44 441.012C1180.73 469.507 1171.85 491.645 1160.31 508.69C1153.72 518.413 1146.02 526.614 1137.41 533.061C1128.14 540.008 1117.48 545.181 1105.74 548.431C1095.43 551.289 1084.66 552.715 1073.25 552.715Z" fill="#FFE492"/>
<path d="M1088.95 558.183C1077.53 558.183 1065.48 556.596 1052.61 553.414C1031.76 548.261 1011.7 539.71 994 532.164C971.717 522.665 948.638 511.27 925.403 498.291C906.781 487.843 888.542 476.568 871.19 464.775C823.445 432.349 782.494 390.557 739.138 346.315C736.992 344.126 734.846 341.934 732.695 339.742C712.533 319.191 691.687 297.938 669.954 278.298C628.837 241.214 583.782 219.435 536.042 213.566C476.076 206.193 411.381 223.029 343.748 263.603C309.919 283.898 275.961 309.479 248.129 335.633C227.114 355.381 210.259 377.601 192.414 401.128C190.301 403.913 188.183 406.707 186.048 409.507C181.784 415.109 176.71 421.752 171.399 428.547C161.562 441.164 148.159 457.197 131.674 469.258C113.819 482.325 95.1429 488.986 74.5773 489.614C57.6733 490.067 39.0189 487.27 17.5454 481.06C-0.890793 475.729 -18.7245 468.762 -38.4585 460.871C-56.4721 453.579 -75.4836 446.047 -92.5403 441.073C-143.064 426.338 -196.432 413.435 -251.157 402.715L-250.96 401.566C-196.202 412.289 -142.805 425.204 -92.254 439.945C-75.151 444.934 -56.1122 452.477 -38.0768 459.775C-4.99954 473.005 36.1671 489.477 74.5473 488.445C118.427 487.101 146.626 458.5 170.562 427.793C175.87 421.004 180.941 414.364 185.203 408.764C187.338 405.964 189.456 403.17 191.566 400.388C209.441 376.824 226.326 354.565 247.409 334.753C275.298 308.547 309.322 282.916 343.217 262.583C411.053 221.887 475.973 205.006 536.167 212.406C559.247 215.244 581.917 221.834 603.543 231.993C626.748 242.891 649.329 258.173 670.658 277.407C692.415 297.067 713.275 318.331 733.448 338.897C735.599 341.092 737.747 343.281 739.893 345.47C783.208 389.674 824.124 431.426 871.776 463.79C889.103 475.565 907.316 486.826 925.91 497.257C949.112 510.215 972.156 521.596 994.407 531.079C1029.38 545.984 1072.9 564.534 1115.93 553.776C1139.24 547.948 1157.02 535.007 1170.28 514.216C1195.82 474.504 1200.37 413.841 1204.02 365.098C1205.33 347.665 1206.57 331.199 1208.61 317.884C1209.04 315.137 1209.46 312.375 1209.88 309.599C1213.7 284.52 1217.66 258.585 1224.53 233.276C1234.34 196.873 1253.98 147.51 1291.82 119.08C1302.38 111.148 1313.39 105.046 1325.5 100.422C1342.32 93.9369 1361.07 90.8886 1381.22 91.3562C1399.62 91.7829 1419.26 95.1351 1439.61 101.316C1474.12 111.8 1507.12 130.846 1535.04 156.395C1566.3 184.943 1592.64 221.469 1613.33 264.954C1622.83 284.906 1631.05 306.238 1637.76 328.356C1644.2 349.538 1649.28 371.499 1652.86 393.625L1651.79 393.824C1636.18 297.406 1593.36 211.19 1534.33 157.283C1506.53 131.845 1473.67 112.878 1439.31 102.436C1396.93 89.5589 1357.71 89.2432 1325.86 101.518C1313.85 106.106 1302.91 112.162 1292.44 120.032C1254.86 148.267 1235.33 197.375 1225.57 233.597C1218.72 258.84 1214.77 284.736 1210.95 309.783C1210.53 312.559 1210.11 315.324 1209.69 318.071C1207.64 331.337 1206.41 347.782 1205.11 365.189C1201.44 414.072 1196.88 474.911 1171.18 514.877C1164.78 524.898 1157.14 533.286 1148.46 539.8C1139.13 546.809 1128.26 551.894 1116.18 554.916C1107.46 557.09 1098.42 558.183 1088.95 558.183Z" fill="#FFE492"/>
<path d="M1103.71 563.871C1090.69 563.871 1076.9 561.614 1062.04 557.084C1041.02 550.675 1020.83 540.665 1003.02 531.836C980.519 520.678 957.45 507.687 934.458 493.232C915.97 481.571 897.853 469.089 880.605 456.139C838.135 424.26 801.838 385.205 763.409 343.857C757.127 337.097 750.63 330.109 744.185 323.238C721.528 299.098 702.181 279.192 681.414 260.52C639.563 222.945 593.186 202.583 543.567 200C481.219 196.753 414.435 220.484 345.074 270.533C310.617 295.398 276.689 325.88 249.542 356.369C229.091 379.337 213.103 404.34 196.177 430.809C194.081 434.088 191.976 437.379 189.857 440.673C186.084 446.55 181.089 454.295 175.933 462.06C154.236 494.816 125.889 528.54 80.1642 530.264C78.7383 530.314 77.3069 530.337 75.8782 530.337C40.1727 530.337 3.72009 515.189 -33.5723 498.277L-35.9006 497.213C-54.3723 488.761 -71.8216 480.779 -87.973 474.969C-148.841 453.073 -207.708 434.591 -252.192 420.937L-251.873 419.741C-207.378 433.401 -148.495 451.887 -87.605 473.791C-71.4099 479.616 -53.9415 487.609 -35.4453 496.07L-33.1197 497.134C5.53864 514.666 43.2917 530.305 80.1233 529.025C125.341 527.318 153.451 493.855 174.987 461.344C180.14 453.585 185.13 445.846 188.903 439.971C191.022 436.675 193.124 433.387 195.22 430.108C212.173 403.597 228.186 378.554 248.702 355.512C275.904 324.96 309.9 294.416 344.425 269.501C376.469 246.378 408.524 228.623 439.698 216.725C475.466 203.074 510.433 197.03 543.622 198.757C593.497 201.353 640.108 221.814 682.155 259.564C702.953 278.266 722.319 298.192 744.997 322.353C751.445 329.224 757.943 336.215 764.227 342.974C802.618 384.282 838.88 423.298 881.268 455.113C898.491 468.048 916.581 480.51 935.042 492.154C958.001 506.591 981.034 519.562 1003.51 530.702C1038.78 548.194 1082.68 569.961 1126.38 560.162C1150.26 554.805 1168.15 541.788 1181.07 520.368C1206.28 478.847 1207.8 414.77 1209.02 363.283C1209.42 346.484 1209.79 330.615 1211 317.829L1211.02 317.536C1213.72 288.904 1216.51 259.298 1222.9 230.087C1228.44 204.608 1236.15 181.701 1245.82 161.997C1256.73 139.783 1270.18 121.593 1285.79 107.93C1296.24 98.7883 1307.29 91.5257 1319.58 85.7302C1352.78 69.9805 1393.47 67.549 1437.24 78.7044C1454.85 83.1934 1472.23 89.9942 1488.89 98.9139C1505.64 107.886 1521.32 118.825 1535.5 131.422C1567.52 159.832 1594.06 196.703 1614.39 241.012C1632.67 280.838 1645.42 326.269 1651.28 372.39L1650.14 372.557C1637.59 273.844 1595.54 186.302 1534.76 132.377C1506.34 107.12 1472.52 88.9772 1436.97 79.9202C1393.45 68.829 1353.02 71.2343 1320.05 86.8759C1307.86 92.6275 1296.9 99.8316 1286.53 108.9C1257.37 134.411 1235.76 176.417 1224.03 230.377C1217.66 259.512 1214.87 289.076 1212.18 317.668L1212.15 317.96C1210.95 330.7 1210.58 346.546 1210.18 363.321C1208.95 414.966 1207.43 479.236 1182.04 521.049C1175.81 531.378 1168.22 539.947 1159.49 546.516C1150.08 553.601 1139.02 558.601 1126.61 561.386C1119.22 563.041 1111.61 563.871 1103.71 563.871Z" fill="#FFE492"/>
<path d="M1103.9 564.054C1090.89 564.054 1077.1 561.798 1062.23 557.268C1041.21 550.859 1021.02 540.849 1003.22 532.02C980.711 520.862 957.643 507.871 934.651 493.416C916.162 481.755 898.045 469.272 880.798 456.323C838.328 424.443 802.031 385.389 763.601 344.041C757.32 337.281 750.823 330.293 744.377 323.422C721.72 299.282 702.374 279.376 681.606 260.704C639.755 223.128 593.378 202.767 543.76 200.183C481.411 196.936 414.627 220.667 345.266 270.716C310.81 295.582 276.882 326.064 249.734 356.552C229.283 379.521 213.295 404.523 196.37 430.993C194.273 434.272 192.168 437.563 190.05 440.856C186.276 446.734 181.281 454.478 176.126 462.244C154.429 495 126.082 528.723 80.3566 530.448C78.9306 530.497 77.4993 530.521 76.0706 530.521C40.3651 530.521 3.91248 515.373 -33.3799 498.46L-35.7083 497.396C-54.1799 488.944 -71.6292 480.963 -87.7807 475.153C-148.649 453.257 -207.515 434.775 -252 421.12L-251.681 419.925C-207.185 433.585 -148.302 452.07 -87.4126 473.975C-71.2175 479.8 -53.7492 487.793 -35.2529 496.254L-32.9273 497.317C5.73102 514.85 43.4841 530.489 80.3157 529.208C125.534 527.502 153.643 494.038 175.18 461.528C180.333 453.768 185.322 446.029 189.095 440.155C191.214 436.858 193.316 433.57 195.413 430.291C212.366 403.781 228.378 378.737 248.895 355.696C276.096 325.143 310.092 294.6 344.617 269.685C376.661 246.561 408.716 228.807 439.89 216.909C475.659 203.258 510.625 197.214 543.814 198.941C593.689 201.536 640.301 221.997 682.348 259.748C703.145 278.449 722.511 298.376 745.19 322.536C751.638 329.407 758.135 336.398 764.419 343.158C802.81 384.466 839.072 423.482 881.46 455.297C898.683 468.232 916.773 480.694 935.234 492.337C958.193 506.775 981.226 519.745 1003.7 530.886C1038.97 548.378 1082.87 570.145 1126.57 560.345C1150.45 554.988 1168.34 541.971 1181.26 520.552C1206.48 479.031 1207.99 414.954 1209.21 363.467C1209.61 346.668 1209.99 330.798 1211.19 318.012L1211.22 317.72C1213.91 289.088 1216.7 259.482 1223.09 230.271C1228.63 204.792 1236.35 181.885 1246.02 162.181C1256.92 139.967 1270.37 121.777 1285.99 108.114C1296.43 98.9718 1307.49 91.7093 1319.77 85.9138C1352.97 70.1641 1393.66 67.7326 1437.43 78.888C1455.04 83.377 1472.42 90.1778 1489.08 99.0975C1505.83 108.07 1521.52 119.009 1535.69 131.605C1567.71 160.015 1594.26 196.887 1614.59 241.196C1632.86 281.021 1645.62 326.453 1651.48 372.574L1650.33 372.74C1637.78 274.028 1595.73 186.485 1534.95 132.561C1506.53 107.304 1472.71 89.1608 1437.16 80.1038C1393.64 69.0126 1353.21 71.4179 1320.25 87.0595C1308.05 92.8111 1297.09 100.015 1286.72 109.084C1257.57 134.595 1235.96 176.601 1224.23 230.56C1217.85 259.695 1215.07 289.26 1212.37 317.852L1212.34 318.144C1211.14 330.883 1210.77 346.729 1210.37 363.505C1209.15 415.15 1207.62 479.42 1182.23 521.233C1176 531.561 1168.42 540.13 1159.69 546.7C1150.27 553.784 1139.21 558.785 1126.8 561.57C1119.42 563.224 1111.8 564.054 1103.9 564.054Z" fill="#FFE492"/>
<path d="M79.2214 570.464C63.2553 570.464 45.8688 567.129 26.2466 560.32C6.74979 553.554 -12.5317 544.214 -30.4662 535.13C-33.7134 533.476 -36.9361 531.825 -40.1369 530.185C-56.0703 522.023 -71.1203 514.313 -85.186 508.307C-141.272 484.368 -194.732 462.852 -246.433 442.049L-255 438.601L-254.569 437.37L-246.003 440.819C-194.298 461.628 -140.83 483.144 -84.7334 507.088C-70.6295 513.109 -55.5604 520.827 -39.608 529.002C-36.4099 530.641 -33.1872 532.292 -29.9428 533.944C6.87244 552.59 45.9861 570.66 83.9218 569.05C130.555 566.969 158.501 528.028 177.635 494.34C182.537 485.724 187.26 477.138 190.826 470.62C192.794 467.029 194.749 463.44 196.699 459.86C212.866 430.181 228.137 402.148 248.22 375.716C274.729 340.832 308.693 305.37 343.859 275.867C376.483 248.494 409.405 226.867 441.713 211.588C478.771 194.061 514.968 184.966 549.296 184.554C600.951 183.73 648.929 202.779 691.876 241.167C715.683 262.472 737.028 285.52 754.772 305.256C764.426 315.996 774.081 327.006 783.419 337.653C816.472 375.345 850.65 414.317 888.981 445.884C906.104 459.988 924.076 473.654 942.395 486.499C965.066 502.36 988.088 516.92 1010.83 529.773C1046.37 549.863 1090.6 574.865 1135.04 565.993C1159.5 561.109 1177.5 548.016 1190.08 525.965C1214.96 482.562 1213.28 414.975 1211.93 360.668C1211.53 344.608 1211.15 329.437 1211.6 317.224C1212.63 289.69 1214.17 257.691 1219.5 226.35C1224 199.792 1230.79 175.766 1239.68 154.94C1249.74 131.381 1262.63 111.63 1277.99 96.2341C1288.17 86.0314 1299.58 77.3719 1311.89 70.4921C1329.47 60.6431 1349.19 54.4502 1370.51 52.0888C1390.48 49.8764 1411.54 51.0396 1433.09 55.5432C1451.26 59.3426 1469.18 65.591 1486.34 74.119C1503.6 82.6997 1519.7 93.3904 1534.18 105.893C1550.87 120.29 1566.21 137.29 1579.79 156.424C1592.65 174.553 1604.05 194.771 1613.67 216.515C1631.67 257.194 1643.52 303.564 1647.92 350.602L1646.7 350.734C1637.24 249.721 1595.94 160.855 1533.41 106.919C1504.77 82.1882 1469.06 64.4015 1432.85 56.835C1388.09 47.4799 1346.46 52.6061 1312.46 71.6583C1300.24 78.4824 1288.93 87.0748 1278.83 97.1956C1249.89 126.205 1230.33 169.737 1220.71 226.586C1215.38 257.843 1213.85 289.787 1212.83 317.276C1212.38 329.446 1212.75 344.594 1213.15 360.633C1213.82 387.424 1214.57 417.792 1212.04 447.149C1209.11 481.215 1202.26 507.22 1191.12 526.652C1185.06 537.284 1177.53 546.037 1168.74 552.666C1159.26 559.826 1147.99 564.745 1135.26 567.284C1128.84 568.567 1122.43 569.149 1116.05 569.149C1077.86 569.149 1040.86 548.229 1010.26 530.933C987.485 518.06 964.428 503.479 941.727 487.595C923.381 474.733 905.384 461.046 888.237 446.921C849.827 415.29 815.613 376.277 782.527 338.55C773.192 327.906 763.54 316.899 753.891 306.165C736.172 286.452 714.857 263.437 691.093 242.172C648.378 203.989 600.682 185.051 549.315 185.863C468.648 186.834 393.474 235.901 344.616 276.895C309.522 306.34 275.626 341.727 249.174 376.54C229.151 402.893 213.902 430.882 197.759 460.514C195.81 464.094 193.852 467.683 191.884 471.278C188.315 477.798 183.59 486.391 178.685 495.015C170.653 509.157 158.043 529.744 141.341 545.175C133.23 552.669 124.598 558.558 115.685 562.681C105.747 567.278 95.0757 569.862 83.9736 570.356C82.4005 570.429 80.8164 570.464 79.2214 570.464Z" fill="#FFE492"/>
<path d="M86.1378 611.717C70.1526 611.717 52.8015 608.125 33.2829 600.796C13.0744 593.209 -6.90497 582.541 -23.7817 573.104C-28.9674 570.199 -34.1422 567.253 -39.1479 564.404C-53.14 556.44 -66.3578 548.914 -78.8204 542.771C-123.575 520.706 -168.038 499.163 -211.039 478.328C-225.263 471.437 -239.97 464.312 -254.224 457.391L-253.689 456.126C-239.435 463.046 -224.729 470.172 -210.505 477.063C-167.504 497.898 -123.035 519.443 -78.2779 541.511C-65.7826 547.672 -52.5484 555.204 -38.5399 563.179C-33.5369 566.029 -28.3621 568.972 -23.1818 571.877C11.8203 591.44 52.4198 612.15 91.2962 610.2C139.028 607.751 165.837 565.231 183.864 528.462C188.486 519.043 192.954 509.585 196.33 502.399C198.064 498.71 199.787 495.025 201.507 491.348C216.972 458.28 231.577 427.046 251.322 397.052C277.003 358.042 310.939 317.666 346.873 283.364C396.917 235.799 474.264 177.781 558.549 171.488C612.151 167.379 661.486 185.014 705.177 223.908C724.808 241.39 744.22 261.556 768.126 289.3C780.207 303.319 792.195 317.85 803.787 331.899C833.95 368.452 865.135 406.249 900.276 437.798C917.3 453.086 935.15 467.953 953.33 481.988C975.344 498.965 998.358 515.115 1021.73 529.991C1057.63 552.702 1102.31 580.972 1147.28 572.97C1171.94 568.674 1190.57 555.128 1202.66 532.712C1227.2 487.345 1221.94 413.123 1218.09 358.93C1217.01 343.721 1215.99 329.357 1215.79 317.769C1215.34 292.015 1215.38 258.058 1219.68 223.761C1227.1 164.331 1245.3 117.874 1273.78 85.6878C1283.75 74.3482 1295.2 64.4963 1307.79 56.4037C1325.69 44.8771 1345.9 37.1235 1367.85 33.3622C1388.52 29.82 1410.28 29.8756 1432.52 33.5288C1451.28 36.6793 1469.74 42.39 1487.36 50.4972C1505.17 58.6862 1521.67 69.1198 1536.44 81.5085C1553.5 95.8232 1569.09 112.882 1582.77 132.215C1595.73 150.537 1607.09 171.041 1616.53 193.165C1634.25 234.701 1645.19 282.005 1648.14 329.964L1646.85 330.055C1640.48 226.737 1599.95 136.543 1535.64 82.6045C1506.48 58.1338 1469.79 41.1917 1432.32 34.9024C1386.13 27.3183 1343.3 35.1654 1308.46 57.5961C1295.97 65.6215 1284.62 75.3945 1274.72 86.6435C1246.44 118.616 1228.35 164.81 1220.97 223.948C1216.68 258.151 1216.65 292.041 1217.09 317.745C1217.29 329.292 1218.31 343.639 1219.39 358.828C1221.37 386.841 1223.62 418.594 1222.34 449.594C1220.84 485.69 1214.77 513.107 1203.79 533.41C1197.88 544.361 1190.41 553.304 1181.58 559.991C1172.01 567.242 1160.54 572.07 1147.49 574.343C1127.26 577.941 1105.49 574.709 1080.93 564.459C1059.58 555.549 1039.12 542.607 1021.07 531.192C997.668 516.296 974.624 500.122 952.578 483.121C934.371 469.067 916.496 454.179 899.448 438.871C864.233 407.258 833.012 369.419 802.82 332.829C791.232 318.783 779.247 304.261 767.177 290.253C743.312 262.558 723.935 242.431 704.351 224.989C660.919 186.318 611.898 168.788 558.636 172.871C474.714 179.14 397.623 236.98 347.729 284.402C311.866 318.634 278 358.924 252.375 397.853C232.684 427.762 218.1 458.952 202.661 491.971C200.94 495.651 199.217 499.336 197.483 503.024C194.105 510.217 189.634 519.683 185.007 529.111C166.821 566.207 139.742 609.107 91.3535 611.589C89.6331 611.673 87.8909 611.717 86.1378 611.717Z" fill="#FFE492"/>
<path d="M91.3667 652.409C47.689 652.409 1.86017 623.653 -38.7666 598.16C-51.251 590.327 -63.0429 582.927 -74.2486 576.67L-255.238 475.617L-254.608 474.322L-73.6188 575.375C-62.3831 581.647 -50.5776 589.056 -38.0768 596.9C4.12039 623.379 51.9504 653.39 96.8795 650.789C145.664 647.969 171.363 601.869 188.303 562.025C193.843 548.993 199.192 535.734 204.367 522.91C218.52 487.839 233.153 451.573 252.628 417.82C268.092 391.02 287.303 362.914 308.182 336.543C331.087 307.613 355.611 281.07 381.068 257.655C409.137 231.84 437.677 210.484 465.893 194.185C497.103 176.159 527.849 164.39 557.284 159.202C616.248 148.812 669.878 164.58 716.677 206.071C755.57 240.549 788.625 283.183 820.593 324.415C848.419 360.304 877.191 397.412 909.772 429.133C947.405 465.771 988.136 499.582 1030.83 529.623C1066.81 554.935 1111.58 586.44 1157.73 579.359C1196.7 573.379 1219.23 545.428 1226.61 493.903C1232.89 450.076 1226.92 398.087 1222.12 356.315C1220.49 342.079 1218.94 328.632 1218.19 317.728C1214 257.617 1216.67 207.994 1226.33 166.029C1232.37 139.846 1241.26 116.506 1252.78 96.6593C1265.65 74.4887 1282.17 56.0064 1301.88 41.7267C1318.94 29.373 1338.15 20.4008 1359.01 15.0583C1378.86 9.97305 1399.76 8.26919 1421.13 9.99351C1463.16 13.3837 1504.27 29.9137 1536.89 56.5354C1554.33 70.7653 1570.16 87.8857 1583.95 107.417C1597.01 125.929 1608.33 146.723 1617.59 169.227C1635.03 211.618 1645.05 259.861 1646.56 308.735L1645.19 308.785C1641.98 204.706 1601.18 110.842 1536.06 57.7015C1466.91 1.26672 1368.74 -4.94372 1302.64 42.9396C1237.16 90.3728 1209.98 180.221 1219.54 317.62C1220.3 328.489 1221.84 341.918 1223.47 356.136C1228.28 397.999 1234.26 450.1 1227.96 494.125C1224.52 518.105 1217.62 537.376 1207.44 551.407C1201.71 559.295 1194.81 565.743 1186.93 570.565C1178.53 575.697 1168.77 579.143 1157.92 580.809C1153.48 581.49 1148.97 581.831 1144.38 581.831C1127.66 581.831 1109.85 577.299 1090.33 568.116C1068.35 557.77 1047.13 542.841 1030.08 530.847C987.326 500.762 946.538 466.907 908.851 430.217C876.196 398.429 847.394 361.277 819.538 325.35C787.611 284.171 754.597 241.589 715.802 207.199C669.316 165.991 616.055 150.326 557.496 160.646C439.043 181.519 317.024 308.989 253.778 418.592C234.355 452.251 219.741 488.467 205.608 523.491C200.43 536.321 195.078 549.59 189.532 562.633C178.286 589.085 167.178 608.026 154.577 622.236C146.711 631.103 138.177 638.094 129.212 643.012C119.245 648.481 108.388 651.59 96.9423 652.254C95.0938 652.356 93.2316 652.409 91.3667 652.409Z" fill="#FFE492"/>
</g>
</svg>
